  0
SECTION
  2
BLOCKS
  0
ENDSEC
  0
SECTION
  2
ENTITIES
  0
LINE
  8
0
 10
-100
 11
-97.815
 20
0
 21
20.791
  0
LINE
  8
0
 10
-97.815
 11
-91.355
 20
20.791
 21
40.674
  0
LINE
  8
0
 10
-91.355
 11
-80.902
 20
40.674
 21
58.779
  0
LINE
  8
0
 10
-80.902
 11
-66.913
 20
58.779
 21
74.314
  0
LINE
  8
0
 10
-66.913
 11
-50
 20
74.314
 21
86.603
  0
LINE
  8
0
 10
-50
 11
-30.902
 20
86.603
 21
95.106
  0
LINE
  8
0
 10
-30.902
 11
-10.453
 20
95.106
 21
99.452
  0
LINE
  8
0
 10
-10.453
 11
10.453
 20
99.452
 21
99.452
  0
LINE
  8
0
 10
10.453
 11
30.902
 20
99.452
 21
95.106
  0
LINE
  8
0
 10
30.902
 11
50
 20
95.106
 21
86.603
  0
LINE
  8
0
 10
50
 11
66.913
 20
86.603
 21
74.314
  0
LINE
  8
0
 10
66.913
 11
80.902
 20
74.314
 21
58.779
  0
LINE
  8
0
 10
80.902
 11
91.355
 20
58.779
 21
40.674
  0
LINE
  8
0
 10
91.355
 11
97.815
 20
40.674
 21
20.791
  0
LINE
  8
0
 10
97.815
 11
100
 20
20.791
 21
0
  0
LINE
  8
0
 10
100
 11
97.815
 20
0
 21
-20.791
  0
LINE
  8
0
 10
97.815
 11
91.355
 20
-20.791
 21
-40.674
  0
LINE
  8
0
 10
91.355
 11
80.902
 20
-40.674
 21
-58.779
  0
LINE
  8
0
 10
80.902
 11
66.913
 20
-58.779
 21
-74.314
  0
LINE
  8
0
 10
66.913
 11
50
 20
-74.314
 21
-86.603
  0
LINE
  8
0
 10
50
 11
30.902
 20
-86.603
 21
-95.106
  0
LINE
  8
0
 10
30.902
 11
10.453
 20
-95.106
 21
-99.452
  0
LINE
  8
0
 10
10.453
 11
-10.453
 20
-99.452
 21
-99.452
  0
LINE
  8
0
 10
-10.453
 11
-30.902
 20
-99.452
 21
-95.106
  0
LINE
  8
0
 10
-30.902
 11
-50
 20
-95.106
 21
-86.603
  0
LINE
  8
0
 10
-50
 11
-66.913
 20
-86.603
 21
-74.314
  0
LINE
  8
0
 10
-66.913
 11
-80.902
 20
-74.314
 21
-58.779
  0
LINE
  8
0
 10
-80.902
 11
-91.355
 20
-58.779
 21
-40.674
  0
LINE
  8
0
 10
-91.355
 11
-97.815
 20
-40.674
 21
-20.791
  0
LINE
  8
0
 10
-97.815
 11
-100
 20
-20.791
 21
0
  0
LINE
  8
0
 10
-31.222
 11
-30.306
 20
0
 21
1.587
  0
LINE
  8
0
 10
-30.306
 11
-28.474
 20
1.587
 21
1.587
  0
LINE
  8
0
 10
-28.474
 11
-27.558
 20
1.587
 21
0
  0
LINE
  8
0
 10
-27.558
 11
-28.474
 20
0
 21
-1.587
  0
LINE
  8
0
 10
-28.474
 11
-30.306
 20
-1.587
 21
-1.587
  0
LINE
  8
0
 10
-30.306
 11
-31.222
 20
-1.587
 21
0
  0
LINE
  8
0
 10
-25.89
 11
-25.324
 20
0
 21
5.383
  0
LINE
  8
0
 10
-25.324
 11
-23.652
 20
5.383
 21
10.53
  0
LINE
  8
0
 10
-23.652
 11
-20.946
 20
10.53
 21
15.218
  0
LINE
  8
0
 10
-20.946
 11
-17.324
 20
15.218
 21
19.24
  0
LINE
  8
0
 10
-17.324
 11
-12.945
 20
19.24
 21
22.422
  0
LINE
  8
0
 10
-12.945
 11
-8
 20
22.422
 21
24.623
  0
LINE
  8
0
 10
-8
 11
-2.706
 20
24.623
 21
25.748
  0
LINE
  8
0
 10
-2.706
 11
2.706
 20
25.748
 21
25.748
  0
LINE
  8
0
 10
2.706
 11
8
 20
25.748
 21
24.623
  0
LINE
  8
0
 10
8
 11
12.945
 20
24.623
 21
22.422
  0
LINE
  8
0
 10
12.945
 11
17.324
 20
22.422
 21
19.24
  0
LINE
  8
0
 10
17.324
 11
20.946
 20
19.24
 21
15.218
  0
LINE
  8
0
 10
20.946
 11
23.652
 20
15.218
 21
10.53
  0
LINE
  8
0
 10
23.652
 11
25.324
 20
10.53
 21
5.383
  0
LINE
  8
0
 10
25.324
 11
25.89
 20
5.383
 21
0
  0
LINE
  8
0
 10
25.89
 11
25.324
 20
0
 21
-5.383
  0
LINE
  8
0
 10
25.324
 11
23.652
 20
-5.383
 21
-10.53
  0
LINE
  8
0
 10
23.652
 11
20.946
 20
-10.53
 21
-15.218
  0
LINE
  8
0
 10
20.946
 11
17.324
 20
-15.218
 21
-19.24
  0
LINE
  8
0
 10
17.324
 11
12.945
 20
-19.24
 21
-22.422
  0
LINE
  8
0
 10
12.945
 11
8
 20
-22.422
 21
-24.623
  0
LINE
  8
0
 10
8
 11
2.706
 20
-24.623
 21
-25.748
  0
LINE
  8
0
 10
2.706
 11
-2.706
 20
-25.748
 21
-25.748
  0
LINE
  8
0
 10
-2.706
 11
-8
 20
-25.748
 21
-24.623
  0
LINE
  8
0
 10
-8
 11
-12.945
 20
-24.623
 21
-22.422
  0
LINE
  8
0
 10
-12.945
 11
-17.324
 20
-22.422
 21
-19.24
  0
LINE
  8
0
 10
-17.324
 11
-20.946
 20
-19.24
 21
-15.218
  0
LINE
  8
0
 10
-20.946
 11
-23.652
 20
-15.218
 21
-10.53
  0
LINE
  8
0
 10
-23.652
 11
-25.324
 20
-10.53
 21
-5.383
  0
LINE
  8
0
 10
-25.324
 11
-25.89
 20
-5.383
 21
0
  0
LINE
  8
0
 10
-22.552
 11
-21.256
 20
-20.307
 21
-19.012
  0
LINE
  8
0
 10
-21.256
 11
-19.486
 20
-19.012
 21
-19.486
  0
LINE
  8
0
 10
-19.486
 11
-19.012
 20
-19.486
 21
-21.256
  0
LINE
  8
0
 10
-19.012
 11
-20.307
 20
-21.256
 21
-22.552
  0
LINE
  8
0
 10
-20.307
 11
-22.077
 20
-22.552
 21
-22.077
  0
LINE
  8
0
 10
-22.077
 11
-22.552
 20
-22.077
 21
-20.307
  0
LINE
  8
0
 10
-22.552
 11
-22.077
 20
20.307
 21
22.077
  0
LINE
  8
0
 10
-22.077
 11
-20.307
 20
22.077
 21
22.552
  0
LINE
  8
0
 10
-20.307
 11
-19.012
 20
22.552
 21
21.256
  0
LINE
  8
0
 10
-19.012
 11
-19.486
 20
21.256
 21
19.486
  0
LINE
  8
0
 10
-19.486
 11
-21.256
 20
19.486
 21
19.012
  0
LINE
  8
0
 10
-21.256
 11
-22.552
 20
19.012
 21
20.307
  0
LINE
  8
0
 10
-1.587
 11
-1.587
 20
-30.306
 21
-28.474
  0
LINE
  8
0
 10
-1.587
 11
0
 20
-28.474
 21
-27.558
  0
LINE
  8
0
 10
0
 11
1.587
 20
-27.558
 21
-28.474
  0
LINE
  8
0
 10
1.587
 11
1.587
 20
-28.474
 21
-30.306
  0
LINE
  8
0
 10
1.587
 11
0
 20
-30.306
 21
-31.222
  0
LINE
  8
0
 10
0
 11
-1.587
 20
-31.222
 21
-30.306
  0
LINE
  8
0
 10
-1.587
 11
-1.587
 20
28.474
 21
30.306
  0
LINE
  8
0
 10
-1.587
 11
0
 20
30.306
 21
31.222
  0
LINE
  8
0
 10
0
 11
1.587
 20
31.222
 21
30.306
  0
LINE
  8
0
 10
1.587
 11
1.587
 20
30.306
 21
28.474
  0
LINE
  8
0
 10
1.587
 11
0
 20
28.474
 21
27.558
  0
LINE
  8
0
 10
0
 11
-1.587
 20
27.558
 21
28.474
  0
LINE
  8
0
 10
19.012
 11
19.486
 20
-21.256
 21
-19.486
  0
LINE
  8
0
 10
19.486
 11
21.256
 20
-19.486
 21
-19.012
  0
LINE
  8
0
 10
21.256
 11
22.552
 20
-19.012
 21
-20.307
  0
LINE
  8
0
 10
22.552
 11
22.077
 20
-20.307
 21
-22.077
  0
LINE
  8
0
 10
22.077
 11
20.307
 20
-22.077
 21
-22.552
  0
LINE
  8
0
 10
20.307
 11
19.012
 20
-22.552
 21
-21.256
  0
LINE
  8
0
 10
19.012
 11
20.307
 20
21.256
 21
22.552
  0
LINE
  8
0
 10
20.307
 11
22.077
 20
22.552
 21
22.077
  0
LINE
  8
0
 10
22.077
 11
22.552
 20
22.077
 21
20.307
  0
LINE
  8
0
 10
22.552
 11
21.256
 20
20.307
 21
19.012
  0
LINE
  8
0
 10
21.256
 11
19.486
 20
19.012
 21
19.486
  0
LINE
  8
0
 10
19.486
 11
19.012
 20
19.486
 21
21.256
  0
LINE
  8
0
 10
27.558
 11
28.474
 20
0
 21
1.587
  0
LINE
  8
0
 10
28.474
 11
30.306
 20
1.587
 21
1.587
  0
LINE
  8
0
 10
30.306
 11
31.222
 20
1.587
 21
0
  0
LINE
  8
0
 10
31.222
 11
30.306
 20
0
 21
-1.587
  0
LINE
  8
0
 10
30.306
 11
28.474
 20
-1.587
 21
-1.587
  0
LINE
  8
0
 10
28.474
 11
27.558
 20
-1.587
 21
0
  0
ENDSEC
  0
SECTION
  2
OBJECTS
  0
DICTIONARY
  0
ENDSEC
  0
EOF
