solid OpenSCAD_Model
  facet normal -1 0 0
    outer loop
      vertex 95.5983 5.28694 0
      vertex 95.5983 5.28694 4.854
      vertex 95.5983 7.15814 0
    endloop
  endfacet
  facet normal -1 0 0
    outer loop
      vertex 95.5983 7.15814 0
      vertex 95.5983 5.28694 4.854
      vertex 95.5983 7.15814 4.854
    endloop
  endfacet
  facet normal -0.913545 -0.406737 0
    outer loop
      vertex 95.5983 5.28694 0
      vertex 96.3594 3.57751 0
      vertex 95.5983 5.28694 4.854
    endloop
  endfacet
  facet normal -0.913545 -0.406737 0
    outer loop
      vertex 95.5983 5.28694 4.854
      vertex 96.3594 3.57751 0
      vertex 96.3594 3.57751 4.854
    endloop
  endfacet
  facet normal 0 0 -1
    outer loop
      vertex 95.5983 5.28694 0
      vertex 95.5983 7.15814 0
      vertex 96.3594 3.57751 0
    endloop
  endfacet
  facet normal 0 0 -1
    outer loop
      vertex 96.3594 3.57751 0
      vertex 95.5983 7.15814 0
      vertex 96.3594 8.86757 0
    endloop
  endfacet
  facet normal 0 0 -1
    outer loop
      vertex 96.3594 3.57751 0
      vertex 96.3594 8.86757 0
      vertex 97.75 10.1197 0
    endloop
  endfacet
  facet normal 0 0 -1
    outer loop
      vertex 100.916 7.80914 0
      vertex 97.75 10.1197 0
      vertex 197.75 45.8971 0
    endloop
  endfacet
  facet normal 0 0 -1
    outer loop
      vertex 200.916 43.5866 0
      vertex 203.011 45.3442 0
      vertex 204.111 43.8303 0
    endloop
  endfacet
  facet normal 0 0 -1
    outer loop
      vertex 201.832 42 0
      vertex 204.111 43.8303 0
      vertex 204.5 42 0
    endloop
  endfacet
  facet normal 0 0 -1
    outer loop
      vertex 195.598 4.71997 0
      vertex 204.5 42 0
      vertex 204.5 0 0
    endloop
  endfacet
  facet normal 0 0 -1
    outer loop
      vertex 201.832 0 0
      vertex 204.5 0 0
      vertex 204.111 -1.83031 0
    endloop
  endfacet
  facet normal 0 0 -1
    outer loop
      vertex 199.084 -1.5866 0
      vertex 204.111 -1.83031 0
      vertex 203.011 -3.34415 0
    endloop
  endfacet
  facet normal 0 0 -1
    outer loop
      vertex 96.3594 3.57751 0
      vertex 203.011 -3.34415 0
      vertex 201.391 -4.27975 0
    endloop
  endfacet
  facet normal 0 0 -1
    outer loop
      vertex 96.3594 3.57751 0
      vertex 201.391 -4.27975 0
      vertex 199.53 -4.47535 0
    endloop
  endfacet
  facet normal 0 0 -1
    outer loop
      vertex 96.3594 3.57751 0
      vertex 199.53 -4.47535 0
      vertex 99.5296 1.74719 0
    endloop
  endfacet
  facet normal 0 0 -1
    outer loop
      vertex 96.3594 3.57751 0
      vertex 99.5296 1.74719 0
      vertex 97.75 2.32543 0
    endloop
  endfacet
  facet normal 0 0 -1
    outer loop
      vertex 96.3594 3.57751 0
      vertex 97.75 10.1197 0
      vertex 98.1679 6.22254 0
    endloop
  endfacet
  facet normal 0 0 -1
    outer loop
      vertex 198.168 0 0
      vertex 100.916 4.63594 0
      vertex 121.96 9.30213 0
    endloop
  endfacet
  facet normal 0 0 -1
    outer loop
      vertex 100.916 4.63594 0
      vertex 96.3594 3.57751 0
      vertex 99.084 4.63594 0
    endloop
  endfacet
  facet normal 0 0 -1
    outer loop
      vertex 200.916 40.4134 0
      vertex 121.96 9.30213 0
      vertex 100.916 4.63594 0
    endloop
  endfacet
  facet normal 0 0 -1
    outer loop
      vertex 101.832 6.22254 0
      vertex 203.011 45.3442 0
      vertex 199.084 43.5866 0
    endloop
  endfacet
  facet normal 0 0 -1
    outer loop
      vertex 99.084 7.80914 0
      vertex 97.75 10.1197 0
      vertex 100.916 7.80914 0
    endloop
  endfacet
  facet normal 0 0 -1
    outer loop
      vertex 198.168 0 0
      vertex 96.3594 3.57751 0
      vertex 100.916 4.63594 0
    endloop
  endfacet
  facet normal 0 0 -1
    outer loop
      vertex 98.1679 6.22254 0
      vertex 97.75 10.1197 0
      vertex 99.084 7.80914 0
    endloop
  endfacet
  facet normal 0 0 -1
    outer loop
      vertex 195.598 35.6479 0
      vertex 204.5 42 0
      vertex 195.598 4.71997 0
    endloop
  endfacet
  facet normal 0 0 -1
    outer loop
      vertex 200.916 1.5866 0
      vertex 195.598 4.71997 0
      vertex 204.5 0 0
    endloop
  endfacet
  facet normal 0 0 -1
    outer loop
      vertex 200.916 40.4134 0
      vertex 204.5 42 0
      vertex 195.598 35.6479 0
    endloop
  endfacet
  facet normal 0 0 -1
    outer loop
      vertex 199.084 -1.5866 0
      vertex 96.3594 3.57751 0
      vertex 198.168 0 0
    endloop
  endfacet
  facet normal 0 0 -1
    outer loop
      vertex 201.832 0 0
      vertex 204.111 -1.83031 0
      vertex 200.916 -1.5866 0
    endloop
  endfacet
  facet normal 0 0 -1
    outer loop
      vertex 96.3594 3.57751 0
      vertex 199.084 -1.5866 0
      vertex 203.011 -3.34415 0
    endloop
  endfacet
  facet normal 0 0 -1
    outer loop
      vertex 200.916 40.4134 0
      vertex 101.832 6.22254 0
      vertex 199.084 40.4134 0
    endloop
  endfacet
  facet normal 0 0 -1
    outer loop
      vertex 200.916 -1.5866 0
      vertex 204.111 -1.83031 0
      vertex 199.084 -1.5866 0
    endloop
  endfacet
  facet normal 0 0 -1
    outer loop
      vertex 200.916 1.5866 0
      vertex 204.5 0 0
      vertex 201.832 0 0
    endloop
  endfacet
  facet normal 0 0 -1
    outer loop
      vertex 121.96 9.30213 0
      vertex 195.598 4.71997 0
      vertex 200.916 1.5866 0
    endloop
  endfacet
  facet normal 0 0 -1
    outer loop
      vertex 199.084 40.4134 0
      vertex 101.832 6.22254 0
      vertex 198.168 42 0
    endloop
  endfacet
  facet normal 0 0 -1
    outer loop
      vertex 121.96 9.30213 0
      vertex 200.916 1.5866 0
      vertex 199.084 1.5866 0
    endloop
  endfacet
  facet normal 0 0 -1
    outer loop
      vertex 200.916 40.4134 0
      vertex 100.916 4.63594 0
      vertex 101.832 6.22254 0
    endloop
  endfacet
  facet normal 0 0 -1
    outer loop
      vertex 101.832 6.22254 0
      vertex 199.084 43.5866 0
      vertex 198.168 42 0
    endloop
  endfacet
  facet normal 0 0 -1
    outer loop
      vertex 201.832 42 0
      vertex 204.5 42 0
      vertex 200.916 40.4134 0
    endloop
  endfacet
  facet normal 0 0 -1
    outer loop
      vertex 121.96 9.30213 0
      vertex 200.916 40.4134 0
      vertex 195.598 35.6479 0
    endloop
  endfacet
  facet normal 0 0 -1
    outer loop
      vertex 200.916 43.5866 0
      vertex 204.111 43.8303 0
      vertex 201.832 42 0
    endloop
  endfacet
  facet normal 0 0 -1
    outer loop
      vertex 199.084 43.5866 0
      vertex 203.011 45.3442 0
      vertex 200.916 43.5866 0
    endloop
  endfacet
  facet normal 0 0 -1
    outer loop
      vertex 198.168 0 0
      vertex 121.96 9.30213 0
      vertex 199.084 1.5866 0
    endloop
  endfacet
  facet normal 0 0 -1
    outer loop
      vertex 99.084 4.63594 0
      vertex 96.3594 3.57751 0
      vertex 98.1679 6.22254 0
    endloop
  endfacet
  facet normal 0 0 -1
    outer loop
      vertex 101.832 6.22254 0
      vertex 197.75 45.8971 0
      vertex 199.53 46.4753 0
    endloop
  endfacet
  facet normal 0 0 -1
    outer loop
      vertex 101.832 6.22254 0
      vertex 199.53 46.4753 0
      vertex 201.391 46.2798 0
    endloop
  endfacet
  facet normal 0 0 -1
    outer loop
      vertex 101.832 6.22254 0
      vertex 201.391 46.2798 0
      vertex 203.011 45.3442 0
    endloop
  endfacet
  facet normal 0 0 -1
    outer loop
      vertex 100.916 7.80914 0
      vertex 197.75 45.8971 0
      vertex 101.832 6.22254 0
    endloop
  endfacet
  facet normal -0.913545 0.406737 0
    outer loop
      vertex 95.5983 7.15814 0
      vertex 95.5983 7.15814 4.854
      vertex 96.3594 8.86757 0
    endloop
  endfacet
  facet normal -0.913545 0.406737 0
    outer loop
      vertex 96.3594 8.86757 0
      vertex 95.5983 7.15814 4.854
      vertex 96.3594 8.86757 4.854
    endloop
  endfacet
  facet normal 0 0 1
    outer loop
      vertex 95.5983 7.15814 4.854
      vertex 95.5983 5.28694 4.854
      vertex 96.3594 3.57751 4.854
    endloop
  endfacet
  facet normal 0 0 1
    outer loop
      vertex 99.5296 1.74719 4.854
      vertex 95.5983 7.15814 4.854
      vertex 97.75 2.32543 4.854
    endloop
  endfacet
  facet normal 0 0 1
    outer loop
      vertex 97.75 2.32543 4.854
      vertex 95.5983 7.15814 4.854
      vertex 96.3594 3.57751 4.854
    endloop
  endfacet
  facet normal 0 0 1
    outer loop
      vertex 99.084 4.63594 4.854
      vertex 95.5983 7.15814 4.854
      vertex 99.5296 1.74719 4.854
    endloop
  endfacet
  facet normal 0 0 1
    outer loop
      vertex 100.916 7.80914 4.854
      vertex 199.53 -4.47535 4.854
      vertex 197.75 -3.89711 4.854
    endloop
  endfacet
  facet normal 0 0 1
    outer loop
      vertex 100.916 7.80914 4.854
      vertex 197.75 -3.89711 4.854
      vertex 196.359 -2.64503 4.854
    endloop
  endfacet
  facet normal 0 0 1
    outer loop
      vertex 100.916 7.80914 4.854
      vertex 196.359 -2.64503 4.854
      vertex 195.598 -0.935603 4.854
    endloop
  endfacet
  facet normal 0 0 1
    outer loop
      vertex 100.916 7.80914 4.854
      vertex 195.598 -0.935603 4.854
      vertex 195.598 0.935603 4.854
    endloop
  endfacet
  facet normal 0 0 1
    outer loop
      vertex 100.916 7.80914 4.854
      vertex 195.598 0.935603 4.854
      vertex 196.359 2.64503 4.854
    endloop
  endfacet
  facet normal 0 0 1
    outer loop
      vertex 100.916 7.80914 4.854
      vertex 196.359 2.64503 4.854
      vertex 197.75 3.89711 4.854
    endloop
  endfacet
  facet normal 0 0 1
    outer loop
      vertex 100.916 7.80914 4.854
      vertex 197.75 3.89711 4.854
      vertex 199.53 4.47535 4.854
    endloop
  endfacet
  facet normal 0 0 1
    outer loop
      vertex 204.5 42 4.854
      vertex 199.53 4.47535 4.854
      vertex 201.391 4.27975 4.854
    endloop
  endfacet
  facet normal 0 0 1
    outer loop
      vertex 204.5 42 4.854
      vertex 201.391 4.27975 4.854
      vertex 203.011 3.34415 4.854
    endloop
  endfacet
  facet normal 0 0 1
    outer loop
      vertex 204.5 42 4.854
      vertex 203.011 3.34415 4.854
      vertex 204.111 1.83031 4.854
    endloop
  endfacet
  facet normal 0 0 1
    outer loop
      vertex 204.5 42 4.854
      vertex 204.111 1.83031 4.854
      vertex 204.5 0 4.854
    endloop
  endfacet
  facet normal 0 0 1
    outer loop
      vertex 204.5 42 4.854
      vertex 204.111 40.1697 4.854
      vertex 199.53 4.47535 4.854
    endloop
  endfacet
  facet normal 0 0 1
    outer loop
      vertex 204.111 40.1697 4.854
      vertex 203.011 38.6558 4.854
      vertex 199.53 4.47535 4.854
    endloop
  endfacet
  facet normal 0 0 1
    outer loop
      vertex 203.011 38.6558 4.854
      vertex 201.391 37.7202 4.854
      vertex 199.53 4.47535 4.854
    endloop
  endfacet
  facet normal 0 0 1
    outer loop
      vertex 199.53 37.5247 4.854
      vertex 95.5983 7.15814 4.854
      vertex 201.391 37.7202 4.854
    endloop
  endfacet
  facet normal 0 0 1
    outer loop
      vertex 197.75 38.1029 4.854
      vertex 196.359 39.355 4.854
      vertex 95.5983 7.15814 4.854
    endloop
  endfacet
  facet normal 0 0 1
    outer loop
      vertex 196.359 39.355 4.854
      vertex 195.598 41.0644 4.854
      vertex 95.5983 7.15814 4.854
    endloop
  endfacet
  facet normal 0 0 1
    outer loop
      vertex 195.598 42.9356 4.854
      vertex 95.5983 7.15814 4.854
      vertex 195.598 41.0644 4.854
    endloop
  endfacet
  facet normal 0 0 1
    outer loop
      vertex 196.359 44.645 4.854
      vertex 95.5983 7.15814 4.854
      vertex 195.598 42.9356 4.854
    endloop
  endfacet
  facet normal 0 0 1
    outer loop
      vertex 197.75 45.8971 4.854
      vertex 95.5983 7.15814 4.854
      vertex 196.359 44.645 4.854
    endloop
  endfacet
  facet normal 0 0 1
    outer loop
      vertex 97.75 10.1197 4.854
      vertex 95.5983 7.15814 4.854
      vertex 197.75 45.8971 4.854
    endloop
  endfacet
  facet normal 0 0 1
    outer loop
      vertex 96.3594 8.86757 4.854
      vertex 95.5983 7.15814 4.854
      vertex 97.75 10.1197 4.854
    endloop
  endfacet
  facet normal 0 0 1
    outer loop
      vertex 199.53 -4.47535 4.854
      vertex 99.084 4.63594 4.854
      vertex 99.5296 1.74719 4.854
    endloop
  endfacet
  facet normal 0 0 1
    outer loop
      vertex 98.1679 6.22254 4.854
      vertex 95.5983 7.15814 4.854
      vertex 99.084 4.63594 4.854
    endloop
  endfacet
  facet normal 0 0 1
    outer loop
      vertex 201.391 37.7202 4.854
      vertex 95.5983 7.15814 4.854
      vertex 99.084 7.80914 4.854
    endloop
  endfacet
  facet normal 0 0 1
    outer loop
      vertex 195.598 4.71997 4.854
      vertex 100.916 7.80914 4.854
      vertex 199.53 4.47535 4.854
    endloop
  endfacet
  facet normal 0 0 1
    outer loop
      vertex 201.391 37.7202 4.854
      vertex 99.084 7.80914 4.854
      vertex 100.916 7.80914 4.854
    endloop
  endfacet
  facet normal 0 0 1
    outer loop
      vertex 100.916 7.80914 4.854
      vertex 101.832 6.22254 4.854
      vertex 199.53 -4.47535 4.854
    endloop
  endfacet
  facet normal 0 0 1
    outer loop
      vertex 199.53 -4.47535 4.854
      vertex 100.916 4.63594 4.854
      vertex 99.084 4.63594 4.854
    endloop
  endfacet
  facet normal 0 0 1
    outer loop
      vertex 201.391 37.7202 4.854
      vertex 195.598 4.71997 4.854
      vertex 199.53 4.47535 4.854
    endloop
  endfacet
  facet normal 0 0 1
    outer loop
      vertex 121.96 9.30213 4.854
      vertex 100.916 7.80914 4.854
      vertex 195.598 4.71997 4.854
    endloop
  endfacet
  facet normal 0 0 1
    outer loop
      vertex 201.391 37.7202 4.854
      vertex 195.598 35.6479 4.854
      vertex 195.598 4.71997 4.854
    endloop
  endfacet
  facet normal 0 0 1
    outer loop
      vertex 195.598 35.6479 4.854
      vertex 100.916 7.80914 4.854
      vertex 121.96 9.30213 4.854
    endloop
  endfacet
  facet normal 0 0 1
    outer loop
      vertex 201.391 37.7202 4.854
      vertex 100.916 7.80914 4.854
      vertex 195.598 35.6479 4.854
    endloop
  endfacet
  facet normal 0 0 1
    outer loop
      vertex 199.53 37.5247 4.854
      vertex 197.75 38.1029 4.854
      vertex 95.5983 7.15814 4.854
    endloop
  endfacet
  facet normal 0 0 1
    outer loop
      vertex 101.832 6.22254 4.854
      vertex 100.916 4.63594 4.854
      vertex 199.53 -4.47535 4.854
    endloop
  endfacet
  facet normal 0 0 1
    outer loop
      vertex 98.1679 6.22254 4.854
      vertex 99.084 7.80914 4.854
      vertex 95.5983 7.15814 4.854
    endloop
  endfacet
  facet normal -0.669131 -0.743145 0
    outer loop
      vertex 96.3594 3.57751 4.854
      vertex 96.3594 3.57751 0
      vertex 97.75 2.32543 0
    endloop
  endfacet
  facet normal -0.669131 -0.743145 0
    outer loop
      vertex 97.75 2.32543 4.854
      vertex 96.3594 3.57751 4.854
      vertex 97.75 2.32543 0
    endloop
  endfacet
  facet normal -0.309017 -0.951056 0
    outer loop
      vertex 97.75 2.32543 4.854
      vertex 97.75 2.32543 0
      vertex 99.5296 1.74719 0
    endloop
  endfacet
  facet normal -0.309017 -0.951056 0
    outer loop
      vertex 99.5296 1.74719 4.854
      vertex 97.75 2.32543 4.854
      vertex 99.5296 1.74719 0
    endloop
  endfacet
  facet normal -0.0621053 -0.99807 0
    outer loop
      vertex 99.5296 1.74719 4.854
      vertex 99.5296 1.74719 0
      vertex 199.53 -4.47535 0
    endloop
  endfacet
  facet normal -0.0621053 -0.99807 0
    outer loop
      vertex 199.53 -4.47535 4.854
      vertex 99.5296 1.74719 4.854
      vertex 199.53 -4.47535 0
    endloop
  endfacet
  facet normal 0.104529 -0.994522 0
    outer loop
      vertex 199.53 -4.47535 4.854
      vertex 199.53 -4.47535 0
      vertex 201.391 -4.27975 0
    endloop
  endfacet
  facet normal 0.104529 -0.994522 0
    outer loop
      vertex 199.53 -4.47535 9.708
      vertex 199.53 -4.47535 4.854
      vertex 201.391 -4.27975 9.708
    endloop
  endfacet
  facet normal 0.104529 -0.994522 0
    outer loop
      vertex 201.391 -4.27975 9.708
      vertex 199.53 -4.47535 4.854
      vertex 201.391 -4.27975 0
    endloop
  endfacet
  facet normal 0.5 -0.866026 0
    outer loop
      vertex 201.391 -4.27975 9.708
      vertex 201.391 -4.27975 0
      vertex 203.011 -3.34415 0
    endloop
  endfacet
  facet normal 0.5 -0.866026 0
    outer loop
      vertex 203.011 -3.34415 9.708
      vertex 201.391 -4.27975 9.708
      vertex 203.011 -3.34415 0
    endloop
  endfacet
  facet normal 0.809017 -0.587785 0
    outer loop
      vertex 203.011 -3.34415 9.708
      vertex 203.011 -3.34415 0
      vertex 204.111 -1.83031 0
    endloop
  endfacet
  facet normal 0.809017 -0.587785 0
    outer loop
      vertex 204.111 -1.83031 9.708
      vertex 203.011 -3.34415 9.708
      vertex 204.111 -1.83031 0
    endloop
  endfacet
  facet normal 0.978148 -0.207911 0
    outer loop
      vertex 204.111 -1.83031 9.708
      vertex 204.111 -1.83031 0
      vertex 204.5 0 0
    endloop
  endfacet
  facet normal 0.978148 -0.207911 0
    outer loop
      vertex 204.5 0 9.708
      vertex 204.111 -1.83031 9.708
      vertex 204.5 0 4.854
    endloop
  endfacet
  facet normal 0.978148 -0.207911 0
    outer loop
      vertex 204.5 0 4.854
      vertex 204.111 -1.83031 9.708
      vertex 204.5 0 0
    endloop
  endfacet
  facet normal 1 0 0
    outer loop
      vertex 204.5 0 4.854
      vertex 204.5 0 0
      vertex 204.5 42 0
    endloop
  endfacet
  facet normal 1 0 0
    outer loop
      vertex 204.5 42 4.854
      vertex 204.5 0 4.854
      vertex 204.5 42 0
    endloop
  endfacet
  facet normal 0.978148 0.207911 0
    outer loop
      vertex 204.5 42 0
      vertex 204.111 43.8303 0
      vertex 204.111 43.8303 9.708
    endloop
  endfacet
  facet normal 0.978148 0.207911 0
    outer loop
      vertex 204.5 42 4.854
      vertex 204.5 42 0
      vertex 204.111 43.8303 9.708
    endloop
  endfacet
  facet normal 0.978148 0.207911 0
    outer loop
      vertex 204.5 42 9.708
      vertex 204.5 42 4.854
      vertex 204.111 43.8303 9.708
    endloop
  endfacet
  facet normal 0.809017 0.587785 0
    outer loop
      vertex 204.111 43.8303 0
      vertex 203.011 45.3442 0
      vertex 203.011 45.3442 9.708
    endloop
  endfacet
  facet normal 0.809017 0.587785 0
    outer loop
      vertex 204.111 43.8303 9.708
      vertex 204.111 43.8303 0
      vertex 203.011 45.3442 9.708
    endloop
  endfacet
  facet normal 0.5 0.866026 0
    outer loop
      vertex 201.391 46.2798 0
      vertex 201.391 46.2798 9.708
      vertex 203.011 45.3442 0
    endloop
  endfacet
  facet normal 0.5 0.866026 0
    outer loop
      vertex 203.011 45.3442 0
      vertex 201.391 46.2798 9.708
      vertex 203.011 45.3442 9.708
    endloop
  endfacet
  facet normal 0.104529 0.994522 0
    outer loop
      vertex 199.53 46.4753 0
      vertex 199.53 46.4753 9.708
      vertex 201.391 46.2798 0
    endloop
  endfacet
  facet normal 0.104529 0.994522 0
    outer loop
      vertex 201.391 46.2798 0
      vertex 199.53 46.4753 9.708
      vertex 201.391 46.2798 9.708
    endloop
  endfacet
  facet normal -0.309017 0.951056 0
    outer loop
      vertex 197.75 45.8971 0
      vertex 197.75 45.8971 4.854
      vertex 199.53 46.4753 0
    endloop
  endfacet
  facet normal -0.309017 0.951056 0
    outer loop
      vertex 199.53 46.4753 0
      vertex 197.75 45.8971 4.854
      vertex 197.75 45.8971 9.708
    endloop
  endfacet
  facet normal -0.309017 0.951056 0
    outer loop
      vertex 199.53 46.4753 0
      vertex 197.75 45.8971 9.708
      vertex 199.53 46.4753 9.708
    endloop
  endfacet
  facet normal -0.336864 0.941553 0
    outer loop
      vertex 97.75 10.1197 0
      vertex 97.75 10.1197 4.854
      vertex 197.75 45.8971 0
    endloop
  endfacet
  facet normal -0.336864 0.941553 0
    outer loop
      vertex 197.75 45.8971 0
      vertex 97.75 10.1197 4.854
      vertex 197.75 45.8971 4.854
    endloop
  endfacet
  facet normal -0.669131 0.743145 0
    outer loop
      vertex 96.3594 8.86757 0
      vertex 96.3594 8.86757 4.854
      vertex 97.75 10.1197 0
    endloop
  endfacet
  facet normal -0.669131 0.743145 0
    outer loop
      vertex 97.75 10.1197 0
      vertex 96.3594 8.86757 4.854
      vertex 97.75 10.1197 4.854
    endloop
  endfacet
  facet normal 0.866025 0.5 0
    outer loop
      vertex 98.1679 6.22254 4.854
      vertex 99.084 4.63594 4.854
      vertex 99.084 4.63594 0
    endloop
  endfacet
  facet normal 0.866025 0.5 0
    outer loop
      vertex 98.1679 6.22254 0
      vertex 98.1679 6.22254 4.854
      vertex 99.084 4.63594 0
    endloop
  endfacet
  facet normal 0.866025 -0.5 0
    outer loop
      vertex 99.084 7.80914 0
      vertex 99.084 7.80914 4.854
      vertex 98.1679 6.22254 4.854
    endloop
  endfacet
  facet normal 0.866025 -0.5 0
    outer loop
      vertex 98.1679 6.22254 0
      vertex 99.084 7.80914 0
      vertex 98.1679 6.22254 4.854
    endloop
  endfacet
  facet normal 0 -1 0
    outer loop
      vertex 100.916 7.80914 0
      vertex 100.916 7.80914 4.854
      vertex 99.084 7.80914 4.854
    endloop
  endfacet
  facet normal 0 -1 0
    outer loop
      vertex 99.084 7.80914 0
      vertex 100.916 7.80914 0
      vertex 99.084 7.80914 4.854
    endloop
  endfacet
  facet normal -0.866025 -0.5 0
    outer loop
      vertex 101.832 6.22254 4.854
      vertex 100.916 7.80914 4.854
      vertex 101.832 6.22254 0
    endloop
  endfacet
  facet normal -0.866025 -0.5 0
    outer loop
      vertex 101.832 6.22254 0
      vertex 100.916 7.80914 4.854
      vertex 100.916 7.80914 0
    endloop
  endfacet
  facet normal -0.866025 0.5 0
    outer loop
      vertex 101.832 6.22254 4.854
      vertex 101.832 6.22254 0
      vertex 100.916 4.63594 4.854
    endloop
  endfacet
  facet normal -0.866025 0.5 0
    outer loop
      vertex 100.916 4.63594 4.854
      vertex 101.832 6.22254 0
      vertex 100.916 4.63594 0
    endloop
  endfacet
  facet normal 0 1 0
    outer loop
      vertex 100.916 4.63594 4.854
      vertex 100.916 4.63594 0
      vertex 99.084 4.63594 4.854
    endloop
  endfacet
  facet normal 0 1 0
    outer loop
      vertex 99.084 4.63594 4.854
      vertex 100.916 4.63594 0
      vertex 99.084 4.63594 0
    endloop
  endfacet
  facet normal 0.336864 -0.941553 0
    outer loop
      vertex 121.96 9.30213 4.854
      vertex 121.96 9.30213 0
      vertex 195.598 35.6479 0
    endloop
  endfacet
  facet normal 0.336864 -0.941553 0
    outer loop
      vertex 195.598 35.6479 4.854
      vertex 121.96 9.30213 4.854
      vertex 195.598 35.6479 0
    endloop
  endfacet
  facet normal 0.0621053 0.99807 0
    outer loop
      vertex 121.96 9.30213 0
      vertex 121.96 9.30213 4.854
      vertex 195.598 4.71997 0
    endloop
  endfacet
  facet normal 0.0621053 0.99807 0
    outer loop
      vertex 195.598 4.71997 0
      vertex 121.96 9.30213 4.854
      vertex 195.598 4.71997 4.854
    endloop
  endfacet
  facet normal -1 0 0
    outer loop
      vertex 195.598 4.71997 0
      vertex 195.598 4.71997 4.854
      vertex 195.598 35.6479 0
    endloop
  endfacet
  facet normal -1 0 0
    outer loop
      vertex 195.598 35.6479 0
      vertex 195.598 4.71997 4.854
      vertex 195.598 35.6479 4.854
    endloop
  endfacet
  facet normal 0.866025 -0.5 0
    outer loop
      vertex 199.084 1.5866 0
      vertex 199.084 1.5866 9.708
      vertex 198.168 0 9.708
    endloop
  endfacet
  facet normal 0.866025 -0.5 0
    outer loop
      vertex 198.168 0 0
      vertex 199.084 1.5866 0
      vertex 198.168 0 9.708
    endloop
  endfacet
  facet normal 0.866025 0.5 0
    outer loop
      vertex 198.168 0 9.708
      vertex 199.084 -1.5866 9.708
      vertex 199.084 -1.5866 0
    endloop
  endfacet
  facet normal 0.866025 0.5 0
    outer loop
      vertex 198.168 0 0
      vertex 198.168 0 9.708
      vertex 199.084 -1.5866 0
    endloop
  endfacet
  facet normal 0 -1 0
    outer loop
      vertex 200.916 1.5866 0
      vertex 200.916 1.5866 9.708
      vertex 199.084 1.5866 9.708
    endloop
  endfacet
  facet normal 0 -1 0
    outer loop
      vertex 199.084 1.5866 0
      vertex 200.916 1.5866 0
      vertex 199.084 1.5866 9.708
    endloop
  endfacet
  facet normal -0.866025 -0.5 0
    outer loop
      vertex 201.832 0 9.708
      vertex 200.916 1.5866 9.708
      vertex 201.832 0 0
    endloop
  endfacet
  facet normal -0.866025 -0.5 0
    outer loop
      vertex 201.832 0 0
      vertex 200.916 1.5866 9.708
      vertex 200.916 1.5866 0
    endloop
  endfacet
  facet normal -0.866025 0.5 0
    outer loop
      vertex 201.832 0 9.708
      vertex 201.832 0 0
      vertex 200.916 -1.5866 9.708
    endloop
  endfacet
  facet normal -0.866025 0.5 0
    outer loop
      vertex 200.916 -1.5866 9.708
      vertex 201.832 0 0
      vertex 200.916 -1.5866 0
    endloop
  endfacet
  facet normal 0 1 0
    outer loop
      vertex 200.916 -1.5866 9.708
      vertex 200.916 -1.5866 0
      vertex 199.084 -1.5866 9.708
    endloop
  endfacet
  facet normal 0 1 0
    outer loop
      vertex 199.084 -1.5866 9.708
      vertex 200.916 -1.5866 0
      vertex 199.084 -1.5866 0
    endloop
  endfacet
  facet normal 0.866025 0.5 0
    outer loop
      vertex 198.168 42 9.708
      vertex 199.084 40.4134 9.708
      vertex 199.084 40.4134 0
    endloop
  endfacet
  facet normal 0.866025 0.5 0
    outer loop
      vertex 198.168 42 0
      vertex 198.168 42 9.708
      vertex 199.084 40.4134 0
    endloop
  endfacet
  facet normal 0.866025 -0.5 0
    outer loop
      vertex 199.084 43.5866 0
      vertex 199.084 43.5866 9.708
      vertex 198.168 42 9.708
    endloop
  endfacet
  facet normal 0.866025 -0.5 0
    outer loop
      vertex 198.168 42 0
      vertex 199.084 43.5866 0
      vertex 198.168 42 9.708
    endloop
  endfacet
  facet normal 0 -1 0
    outer loop
      vertex 200.916 43.5866 0
      vertex 200.916 43.5866 9.708
      vertex 199.084 43.5866 9.708
    endloop
  endfacet
  facet normal 0 -1 0
    outer loop
      vertex 199.084 43.5866 0
      vertex 200.916 43.5866 0
      vertex 199.084 43.5866 9.708
    endloop
  endfacet
  facet normal -0.866025 -0.5 0
    outer loop
      vertex 201.832 42 9.708
      vertex 200.916 43.5866 9.708
      vertex 201.832 42 0
    endloop
  endfacet
  facet normal -0.866025 -0.5 0
    outer loop
      vertex 201.832 42 0
      vertex 200.916 43.5866 9.708
      vertex 200.916 43.5866 0
    endloop
  endfacet
  facet normal -0.866025 0.5 0
    outer loop
      vertex 201.832 42 9.708
      vertex 201.832 42 0
      vertex 200.916 40.4134 9.708
    endloop
  endfacet
  facet normal -0.866025 0.5 0
    outer loop
      vertex 200.916 40.4134 9.708
      vertex 201.832 42 0
      vertex 200.916 40.4134 0
    endloop
  endfacet
  facet normal 0 1 0
    outer loop
      vertex 200.916 40.4134 9.708
      vertex 200.916 40.4134 0
      vertex 199.084 40.4134 9.708
    endloop
  endfacet
  facet normal 0 1 0
    outer loop
      vertex 199.084 40.4134 9.708
      vertex 200.916 40.4134 0
      vertex 199.084 40.4134 0
    endloop
  endfacet
  facet normal -0.669131 0.743145 0
    outer loop
      vertex 196.359 44.645 4.854
      vertex 196.359 44.645 9.708
      vertex 197.75 45.8971 4.854
    endloop
  endfacet
  facet normal -0.669131 0.743145 0
    outer loop
      vertex 197.75 45.8971 4.854
      vertex 196.359 44.645 9.708
      vertex 197.75 45.8971 9.708
    endloop
  endfacet
  facet normal -0.913545 0.406737 0
    outer loop
      vertex 195.598 42.9356 4.854
      vertex 195.598 42.9356 9.708
      vertex 196.359 44.645 4.854
    endloop
  endfacet
  facet normal -0.913545 0.406737 0
    outer loop
      vertex 196.359 44.645 4.854
      vertex 195.598 42.9356 9.708
      vertex 196.359 44.645 9.708
    endloop
  endfacet
  facet normal -1 0 0
    outer loop
      vertex 195.598 41.0644 4.854
      vertex 195.598 41.0644 9.708
      vertex 195.598 42.9356 4.854
    endloop
  endfacet
  facet normal -1 0 0
    outer loop
      vertex 195.598 42.9356 4.854
      vertex 195.598 41.0644 9.708
      vertex 195.598 42.9356 9.708
    endloop
  endfacet
  facet normal -0.913545 -0.406737 0
    outer loop
      vertex 195.598 41.0644 4.854
      vertex 196.359 39.355 4.854
      vertex 195.598 41.0644 9.708
    endloop
  endfacet
  facet normal -0.913545 -0.406737 0
    outer loop
      vertex 195.598 41.0644 9.708
      vertex 196.359 39.355 4.854
      vertex 196.359 39.355 9.708
    endloop
  endfacet
  facet normal -0.669131 -0.743145 0
    outer loop
      vertex 196.359 39.355 9.708
      vertex 196.359 39.355 4.854
      vertex 197.75 38.1029 4.854
    endloop
  endfacet
  facet normal -0.669131 -0.743145 0
    outer loop
      vertex 197.75 38.1029 9.708
      vertex 196.359 39.355 9.708
      vertex 197.75 38.1029 4.854
    endloop
  endfacet
  facet normal -0.309017 -0.951056 0
    outer loop
      vertex 197.75 38.1029 9.708
      vertex 197.75 38.1029 4.854
      vertex 199.53 37.5247 4.854
    endloop
  endfacet
  facet normal -0.309017 -0.951056 0
    outer loop
      vertex 199.53 37.5247 9.708
      vertex 197.75 38.1029 9.708
      vertex 199.53 37.5247 4.854
    endloop
  endfacet
  facet normal 0.104529 -0.994522 0
    outer loop
      vertex 199.53 37.5247 9.708
      vertex 199.53 37.5247 4.854
      vertex 201.391 37.7202 4.854
    endloop
  endfacet
  facet normal 0.104529 -0.994522 0
    outer loop
      vertex 201.391 37.7202 9.708
      vertex 199.53 37.5247 9.708
      vertex 201.391 37.7202 4.854
    endloop
  endfacet
  facet normal 0.5 -0.866026 0
    outer loop
      vertex 201.391 37.7202 9.708
      vertex 201.391 37.7202 4.854
      vertex 203.011 38.6558 4.854
    endloop
  endfacet
  facet normal 0.5 -0.866026 0
    outer loop
      vertex 203.011 38.6558 9.708
      vertex 201.391 37.7202 9.708
      vertex 203.011 38.6558 4.854
    endloop
  endfacet
  facet normal 0.809017 -0.587785 0
    outer loop
      vertex 203.011 38.6558 9.708
      vertex 203.011 38.6558 4.854
      vertex 204.111 40.1697 4.854
    endloop
  endfacet
  facet normal 0.809017 -0.587785 0
    outer loop
      vertex 204.111 40.1697 9.708
      vertex 203.011 38.6558 9.708
      vertex 204.111 40.1697 4.854
    endloop
  endfacet
  facet normal 0.978148 -0.207911 0
    outer loop
      vertex 204.111 40.1697 9.708
      vertex 204.111 40.1697 4.854
      vertex 204.5 42 4.854
    endloop
  endfacet
  facet normal 0.978148 -0.207911 0
    outer loop
      vertex 204.5 42 9.708
      vertex 204.111 40.1697 9.708
      vertex 204.5 42 4.854
    endloop
  endfacet
  facet normal 0.978148 0.207911 0
    outer loop
      vertex 204.5 0 4.854
      vertex 204.111 1.83031 4.854
      vertex 204.111 1.83031 9.708
    endloop
  endfacet
  facet normal 0.978148 0.207911 0
    outer loop
      vertex 204.5 0 9.708
      vertex 204.5 0 4.854
      vertex 204.111 1.83031 9.708
    endloop
  endfacet
  facet normal 0.809017 0.587785 0
    outer loop
      vertex 204.111 1.83031 4.854
      vertex 203.011 3.34415 4.854
      vertex 203.011 3.34415 9.708
    endloop
  endfacet
  facet normal 0.809017 0.587785 0
    outer loop
      vertex 204.111 1.83031 9.708
      vertex 204.111 1.83031 4.854
      vertex 203.011 3.34415 9.708
    endloop
  endfacet
  facet normal 0.5 0.866026 0
    outer loop
      vertex 201.391 4.27975 4.854
      vertex 201.391 4.27975 9.708
      vertex 203.011 3.34415 4.854
    endloop
  endfacet
  facet normal 0.5 0.866026 0
    outer loop
      vertex 203.011 3.34415 4.854
      vertex 201.391 4.27975 9.708
      vertex 203.011 3.34415 9.708
    endloop
  endfacet
  facet normal 0.104529 0.994522 0
    outer loop
      vertex 199.53 4.47535 4.854
      vertex 199.53 4.47535 9.708
      vertex 201.391 4.27975 4.854
    endloop
  endfacet
  facet normal 0.104529 0.994522 0
    outer loop
      vertex 201.391 4.27975 4.854
      vertex 199.53 4.47535 9.708
      vertex 201.391 4.27975 9.708
    endloop
  endfacet
  facet normal -0.309017 0.951056 0
    outer loop
      vertex 197.75 3.89711 4.854
      vertex 197.75 3.89711 9.708
      vertex 199.53 4.47535 4.854
    endloop
  endfacet
  facet normal -0.309017 0.951056 0
    outer loop
      vertex 199.53 4.47535 4.854
      vertex 197.75 3.89711 9.708
      vertex 199.53 4.47535 9.708
    endloop
  endfacet
  facet normal -0.669131 0.743145 0
    outer loop
      vertex 196.359 2.64503 4.854
      vertex 196.359 2.64503 9.708
      vertex 197.75 3.89711 4.854
    endloop
  endfacet
  facet normal -0.669131 0.743145 0
    outer loop
      vertex 197.75 3.89711 4.854
      vertex 196.359 2.64503 9.708
      vertex 197.75 3.89711 9.708
    endloop
  endfacet
  facet normal -0.913545 0.406737 0
    outer loop
      vertex 195.598 0.935603 4.854
      vertex 195.598 0.935603 9.708
      vertex 196.359 2.64503 4.854
    endloop
  endfacet
  facet normal -0.913545 0.406737 0
    outer loop
      vertex 196.359 2.64503 4.854
      vertex 195.598 0.935603 9.708
      vertex 196.359 2.64503 9.708
    endloop
  endfacet
  facet normal -1 0 0
    outer loop
      vertex 195.598 -0.935603 4.854
      vertex 195.598 -0.935603 9.708
      vertex 195.598 0.935603 4.854
    endloop
  endfacet
  facet normal -1 0 0
    outer loop
      vertex 195.598 0.935603 4.854
      vertex 195.598 -0.935603 9.708
      vertex 195.598 0.935603 9.708
    endloop
  endfacet
  facet normal -0.913545 -0.406737 0
    outer loop
      vertex 195.598 -0.935603 4.854
      vertex 196.359 -2.64503 4.854
      vertex 195.598 -0.935603 9.708
    endloop
  endfacet
  facet normal -0.913545 -0.406737 0
    outer loop
      vertex 195.598 -0.935603 9.708
      vertex 196.359 -2.64503 4.854
      vertex 196.359 -2.64503 9.708
    endloop
  endfacet
  facet normal -0.669131 -0.743145 0
    outer loop
      vertex 196.359 -2.64503 9.708
      vertex 196.359 -2.64503 4.854
      vertex 197.75 -3.89711 4.854
    endloop
  endfacet
  facet normal -0.669131 -0.743145 0
    outer loop
      vertex 197.75 -3.89711 9.708
      vertex 196.359 -2.64503 9.708
      vertex 197.75 -3.89711 4.854
    endloop
  endfacet
  facet normal -0.309017 -0.951056 0
    outer loop
      vertex 197.75 -3.89711 9.708
      vertex 197.75 -3.89711 4.854
      vertex 199.53 -4.47535 4.854
    endloop
  endfacet
  facet normal -0.309017 -0.951056 0
    outer loop
      vertex 199.53 -4.47535 9.708
      vertex 197.75 -3.89711 9.708
      vertex 199.53 -4.47535 4.854
    endloop
  endfacet
  facet normal 0 0 1
    outer loop
      vertex 195.598 0.935603 9.708
      vertex 195.598 -0.935603 9.708
      vertex 196.359 -2.64503 9.708
    endloop
  endfacet
  facet normal 0 0 1
    outer loop
      vertex 199.53 -4.47535 9.708
      vertex 195.598 0.935603 9.708
      vertex 197.75 -3.89711 9.708
    endloop
  endfacet
  facet normal 0 0 1
    outer loop
      vertex 197.75 -3.89711 9.708
      vertex 195.598 0.935603 9.708
      vertex 196.359 -2.64503 9.708
    endloop
  endfacet
  facet normal 0 0 1
    outer loop
      vertex 201.391 -4.27975 9.708
      vertex 195.598 0.935603 9.708
      vertex 199.53 -4.47535 9.708
    endloop
  endfacet
  facet normal 0 0 1
    outer loop
      vertex 199.084 -1.5866 9.708
      vertex 195.598 0.935603 9.708
      vertex 201.391 -4.27975 9.708
    endloop
  endfacet
  facet normal 0 0 1
    outer loop
      vertex 201.832 0 9.708
      vertex 200.916 -1.5866 9.708
      vertex 204.111 -1.83031 9.708
    endloop
  endfacet
  facet normal 0 0 1
    outer loop
      vertex 200.916 1.5866 9.708
      vertex 201.832 0 9.708
      vertex 204.5 0 9.708
    endloop
  endfacet
  facet normal 0 0 1
    outer loop
      vertex 201.391 4.27975 9.708
      vertex 195.598 0.935603 9.708
      vertex 203.011 3.34415 9.708
    endloop
  endfacet
  facet normal 0 0 1
    outer loop
      vertex 199.53 4.47535 9.708
      vertex 195.598 0.935603 9.708
      vertex 201.391 4.27975 9.708
    endloop
  endfacet
  facet normal 0 0 1
    outer loop
      vertex 197.75 3.89711 9.708
      vertex 195.598 0.935603 9.708
      vertex 199.53 4.47535 9.708
    endloop
  endfacet
  facet normal 0 0 1
    outer loop
      vertex 196.359 2.64503 9.708
      vertex 195.598 0.935603 9.708
      vertex 197.75 3.89711 9.708
    endloop
  endfacet
  facet normal 0 0 1
    outer loop
      vertex 203.011 -3.34415 9.708
      vertex 199.084 -1.5866 9.708
      vertex 201.391 -4.27975 9.708
    endloop
  endfacet
  facet normal 0 0 1
    outer loop
      vertex 200.916 1.5866 9.708
      vertex 204.5 0 9.708
      vertex 204.111 1.83031 9.708
    endloop
  endfacet
  facet normal 0 0 1
    outer loop
      vertex 203.011 3.34415 9.708
      vertex 199.084 1.5866 9.708
      vertex 204.111 1.83031 9.708
    endloop
  endfacet
  facet normal 0 0 1
    outer loop
      vertex 203.011 3.34415 9.708
      vertex 195.598 0.935603 9.708
      vertex 199.084 1.5866 9.708
    endloop
  endfacet
  facet normal 0 0 1
    outer loop
      vertex 199.084 1.5866 9.708
      vertex 200.916 1.5866 9.708
      vertex 204.111 1.83031 9.708
    endloop
  endfacet
  facet normal 0 0 1
    outer loop
      vertex 204.5 0 9.708
      vertex 201.832 0 9.708
      vertex 204.111 -1.83031 9.708
    endloop
  endfacet
  facet normal 0 0 1
    outer loop
      vertex 204.111 -1.83031 9.708
      vertex 200.916 -1.5866 9.708
      vertex 203.011 -3.34415 9.708
    endloop
  endfacet
  facet normal 0 0 1
    outer loop
      vertex 199.084 -1.5866 9.708
      vertex 198.168 0 9.708
      vertex 195.598 0.935603 9.708
    endloop
  endfacet
  facet normal 0 0 1
    outer loop
      vertex 200.916 -1.5866 9.708
      vertex 199.084 -1.5866 9.708
      vertex 203.011 -3.34415 9.708
    endloop
  endfacet
  facet normal 0 0 1
    outer loop
      vertex 198.168 0 9.708
      vertex 199.084 1.5866 9.708
      vertex 195.598 0.935603 9.708
    endloop
  endfacet
  facet normal 0 0 1
    outer loop
      vertex 195.598 42.9356 9.708
      vertex 195.598 41.0644 9.708
      vertex 196.359 39.355 9.708
    endloop
  endfacet
  facet normal 0 0 1
    outer loop
      vertex 199.53 37.5247 9.708
      vertex 195.598 42.9356 9.708
      vertex 197.75 38.1029 9.708
    endloop
  endfacet
  facet normal 0 0 1
    outer loop
      vertex 197.75 38.1029 9.708
      vertex 195.598 42.9356 9.708
      vertex 196.359 39.355 9.708
    endloop
  endfacet
  facet normal 0 0 1
    outer loop
      vertex 201.391 37.7202 9.708
      vertex 195.598 42.9356 9.708
      vertex 199.53 37.5247 9.708
    endloop
  endfacet
  facet normal 0 0 1
    outer loop
      vertex 199.084 40.4134 9.708
      vertex 195.598 42.9356 9.708
      vertex 201.391 37.7202 9.708
    endloop
  endfacet
  facet normal 0 0 1
    outer loop
      vertex 201.832 42 9.708
      vertex 200.916 40.4134 9.708
      vertex 204.111 40.1697 9.708
    endloop
  endfacet
  facet normal 0 0 1
    outer loop
      vertex 200.916 43.5866 9.708
      vertex 201.832 42 9.708
      vertex 204.5 42 9.708
    endloop
  endfacet
  facet normal 0 0 1
    outer loop
      vertex 201.391 46.2798 9.708
      vertex 195.598 42.9356 9.708
      vertex 203.011 45.3442 9.708
    endloop
  endfacet
  facet normal 0 0 1
    outer loop
      vertex 199.53 46.4753 9.708
      vertex 195.598 42.9356 9.708
      vertex 201.391 46.2798 9.708
    endloop
  endfacet
  facet normal 0 0 1
    outer loop
      vertex 197.75 45.8971 9.708
      vertex 195.598 42.9356 9.708
      vertex 199.53 46.4753 9.708
    endloop
  endfacet
  facet normal 0 0 1
    outer loop
      vertex 196.359 44.645 9.708
      vertex 195.598 42.9356 9.708
      vertex 197.75 45.8971 9.708
    endloop
  endfacet
  facet normal 0 0 1
    outer loop
      vertex 203.011 38.6558 9.708
      vertex 199.084 40.4134 9.708
      vertex 201.391 37.7202 9.708
    endloop
  endfacet
  facet normal 0 0 1
    outer loop
      vertex 200.916 43.5866 9.708
      vertex 204.5 42 9.708
      vertex 204.111 43.8303 9.708
    endloop
  endfacet
  facet normal 0 0 1
    outer loop
      vertex 203.011 45.3442 9.708
      vertex 199.084 43.5866 9.708
      vertex 204.111 43.8303 9.708
    endloop
  endfacet
  facet normal 0 0 1
    outer loop
      vertex 203.011 45.3442 9.708
      vertex 195.598 42.9356 9.708
      vertex 199.084 43.5866 9.708
    endloop
  endfacet
  facet normal 0 0 1
    outer loop
      vertex 199.084 43.5866 9.708
      vertex 200.916 43.5866 9.708
      vertex 204.111 43.8303 9.708
    endloop
  endfacet
  facet normal 0 0 1
    outer loop
      vertex 204.5 42 9.708
      vertex 201.832 42 9.708
      vertex 204.111 40.1697 9.708
    endloop
  endfacet
  facet normal 0 0 1
    outer loop
      vertex 204.111 40.1697 9.708
      vertex 200.916 40.4134 9.708
      vertex 203.011 38.6558 9.708
    endloop
  endfacet
  facet normal 0 0 1
    outer loop
      vertex 199.084 40.4134 9.708
      vertex 198.168 42 9.708
      vertex 195.598 42.9356 9.708
    endloop
  endfacet
  facet normal 0 0 1
    outer loop
      vertex 200.916 40.4134 9.708
      vertex 199.084 40.4134 9.708
      vertex 203.011 38.6558 9.708
    endloop
  endfacet
  facet normal 0 0 1
    outer loop
      vertex 198.168 42 9.708
      vertex 199.084 43.5866 9.708
      vertex 195.598 42.9356 9.708
    endloop
  endfacet
endsolid OpenSCAD_Model
