solid OpenSCAD_Model
  facet normal -1 0 0
    outer loop
      vertex -4.40166 41.0644 4.854
      vertex -4.40166 42.9356 0
      vertex -4.40166 0.935603 4.854
    endloop
  endfacet
  facet normal -1 0 0
    outer loop
      vertex -4.40166 -0.935603 0
      vertex -4.40166 -0.935603 9.708
      vertex -4.40166 0.935603 4.854
    endloop
  endfacet
  facet normal -1 0 0
    outer loop
      vertex -4.40166 -0.935603 0
      vertex -4.40166 0.935603 4.854
      vertex -4.40166 42.9356 0
    endloop
  endfacet
  facet normal -1 0 0
    outer loop
      vertex -4.40166 42.9356 0
      vertex -4.40166 41.0644 4.854
      vertex -4.40166 41.0644 9.708
    endloop
  endfacet
  facet normal -1 0 0
    outer loop
      vertex -4.40166 42.9356 0
      vertex -4.40166 41.0644 9.708
      vertex -4.40166 42.9356 9.708
    endloop
  endfacet
  facet normal -1 0 0
    outer loop
      vertex -4.40166 0.935603 4.854
      vertex -4.40166 -0.935603 9.708
      vertex -4.40166 0.935603 9.708
    endloop
  endfacet
  facet normal -0.913545 -0.406737 0
    outer loop
      vertex -4.40166 -0.935603 0
      vertex -3.64058 -2.64503 0
      vertex -4.40166 -0.935603 9.708
    endloop
  endfacet
  facet normal -0.913545 -0.406737 0
    outer loop
      vertex -4.40166 -0.935603 9.708
      vertex -3.64058 -2.64503 0
      vertex -3.64058 -2.64503 9.708
    endloop
  endfacet
  facet normal 0 0 -1
    outer loop
      vertex -4.40166 -0.935603 0
      vertex -4.40166 42.9356 0
      vertex -3.64058 -2.64503 0
    endloop
  endfacet
  facet normal 0 0 -1
    outer loop
      vertex -3.64058 -2.64503 0
      vertex -4.40166 42.9356 0
      vertex -3.64058 44.645 0
    endloop
  endfacet
  facet normal 0 0 -1
    outer loop
      vertex -3.64058 -2.64503 0
      vertex -3.64058 44.645 0
      vertex -2.25 45.8971 0
    endloop
  endfacet
  facet normal 0 0 -1
    outer loop
      vertex -1.83205 42 0
      vertex -2.25 45.8971 0
      vertex -0.470378 46.4753 0
    endloop
  endfacet
  facet normal 0 0 -1
    outer loop
      vertex 1.83205 42 0
      vertex -0.470378 46.4753 0
      vertex 99.5296 48.2528 0
    endloop
  endfacet
  facet normal 0 0 -1
    outer loop
      vertex 1.83205 0 0
      vertex 99.5296 48.2528 0
      vertex 101.391 48.0572 0
    endloop
  endfacet
  facet normal 0 0 -1
    outer loop
      vertex 99.084 45.3641 0
      vertex 101.391 48.0572 0
      vertex 103.011 47.1216 0
    endloop
  endfacet
  facet normal 0 0 -1
    outer loop
      vertex 100.916 45.3641 0
      vertex 103.011 47.1216 0
      vertex 104.111 45.6078 0
    endloop
  endfacet
  facet normal 0 0 -1
    outer loop
      vertex 101.832 43.7775 0
      vertex 104.111 45.6078 0
      vertex 104.5 43.7775 0
    endloop
  endfacet
  facet normal 0 0 -1
    outer loop
      vertex 100.916 42.1909 0
      vertex 104.5 43.7775 0
      vertex 104.111 41.9471 0
    endloop
  endfacet
  facet normal 0 0 -1
    outer loop
      vertex 0.916025 40.4134 0
      vertex -1.83205 0 0
      vertex -3.64058 -2.64503 0
    endloop
  endfacet
  facet normal 0 0 -1
    outer loop
      vertex 0.916025 -1.5866 0
      vertex 101.391 39.4977 0
      vertex 1.39058 -4.27975 0
    endloop
  endfacet
  facet normal 0 0 -1
    outer loop
      vertex -3.64058 -2.64503 0
      vertex 1.39058 -4.27975 0
      vertex -0.470378 -4.47535 0
    endloop
  endfacet
  facet normal 0 0 -1
    outer loop
      vertex -3.64058 -2.64503 0
      vertex -0.470378 -4.47535 0
      vertex -2.25 -3.89711 0
    endloop
  endfacet
  facet normal 0 0 -1
    outer loop
      vertex 1.83205 0 0
      vertex 101.391 39.4977 0
      vertex 0.916025 -1.5866 0
    endloop
  endfacet
  facet normal 0 0 -1
    outer loop
      vertex -3.64058 -2.64503 0
      vertex -0.916025 -1.5866 0
      vertex 1.39058 -4.27975 0
    endloop
  endfacet
  facet normal 0 0 -1
    outer loop
      vertex -0.916025 -1.5866 0
      vertex 0.916025 -1.5866 0
      vertex 1.39058 -4.27975 0
    endloop
  endfacet
  facet normal 0 0 -1
    outer loop
      vertex 0.916025 40.4134 0
      vertex 0.916025 1.5866 0
      vertex -0.916025 1.5866 0
    endloop
  endfacet
  facet normal 0 0 -1
    outer loop
      vertex -3.64058 -2.64503 0
      vertex -2.25 45.8971 0
      vertex -1.83205 42 0
    endloop
  endfacet
  facet normal 0 0 -1
    outer loop
      vertex -0.916025 43.5866 0
      vertex -1.83205 42 0
      vertex -0.470378 46.4753 0
    endloop
  endfacet
  facet normal 0 0 -1
    outer loop
      vertex -3.64058 -2.64503 0
      vertex -1.83205 42 0
      vertex -0.916025 40.4134 0
    endloop
  endfacet
  facet normal 0 0 -1
    outer loop
      vertex -0.916025 43.5866 0
      vertex -0.470378 46.4753 0
      vertex 0.916025 43.5866 0
    endloop
  endfacet
  facet normal 0 0 -1
    outer loop
      vertex 4.5 37.613 0
      vertex 0.916025 40.4134 0
      vertex 99.5296 48.2528 0
    endloop
  endfacet
  facet normal 0 0 -1
    outer loop
      vertex 0.916025 43.5866 0
      vertex -0.470378 46.4753 0
      vertex 1.83205 42 0
    endloop
  endfacet
  facet normal 0 0 -1
    outer loop
      vertex 0.916025 40.4134 0
      vertex 1.83205 42 0
      vertex 99.5296 48.2528 0
    endloop
  endfacet
  facet normal 0 0 -1
    outer loop
      vertex 98.1679 43.7775 0
      vertex 1.83205 0 0
      vertex 99.084 45.3641 0
    endloop
  endfacet
  facet normal 0 0 -1
    outer loop
      vertex 0.916025 1.5866 0
      vertex 0.916025 40.4134 0
      vertex 4.5 37.613 0
    endloop
  endfacet
  facet normal 0 0 -1
    outer loop
      vertex 77.7402 38.9148 0
      vertex 4.5 37.613 0
      vertex 99.5296 48.2528 0
    endloop
  endfacet
  facet normal 0 0 -1
    outer loop
      vertex 0.916025 1.5866 0
      vertex 4.5 37.613 0
      vertex 4.5 6.85209 0
    endloop
  endfacet
  facet normal 0 0 -1
    outer loop
      vertex 0.916025 1.5866 0
      vertex 4.5 6.85209 0
      vertex 99.5296 48.2528 0
    endloop
  endfacet
  facet normal 0 0 -1
    outer loop
      vertex 4.5 6.85209 0
      vertex 77.7402 38.9148 0
      vertex 99.5296 48.2528 0
    endloop
  endfacet
  facet normal 0 0 -1
    outer loop
      vertex 0.916025 40.4134 0
      vertex -3.64058 -2.64503 0
      vertex -0.916025 40.4134 0
    endloop
  endfacet
  facet normal 0 0 -1
    outer loop
      vertex 100.916 45.3641 0
      vertex 104.111 45.6078 0
      vertex 101.832 43.7775 0
    endloop
  endfacet
  facet normal 0 0 -1
    outer loop
      vertex 99.084 45.3641 0
      vertex 103.011 47.1216 0
      vertex 100.916 45.3641 0
    endloop
  endfacet
  facet normal 0 0 -1
    outer loop
      vertex -0.916025 -1.5866 0
      vertex -3.64058 -2.64503 0
      vertex -1.83205 0 0
    endloop
  endfacet
  facet normal 0 0 -1
    outer loop
      vertex 0.916025 40.4134 0
      vertex -0.916025 1.5866 0
      vertex -1.83205 0 0
    endloop
  endfacet
  facet normal 0 0 -1
    outer loop
      vertex 1.83205 0 0
      vertex 101.391 48.0572 0
      vertex 99.084 45.3641 0
    endloop
  endfacet
  facet normal 0 0 -1
    outer loop
      vertex 99.084 42.1909 0
      vertex 1.83205 0 0
      vertex 98.1679 43.7775 0
    endloop
  endfacet
  facet normal 0 0 -1
    outer loop
      vertex 100.916 42.1909 0
      vertex 1.83205 0 0
      vertex 99.084 42.1909 0
    endloop
  endfacet
  facet normal 0 0 -1
    outer loop
      vertex 101.832 43.7775 0
      vertex 104.5 43.7775 0
      vertex 100.916 42.1909 0
    endloop
  endfacet
  facet normal 0 0 -1
    outer loop
      vertex 1.83205 0 0
      vertex 100.916 42.1909 0
      vertex 104.111 41.9471 0
    endloop
  endfacet
  facet normal 0 0 -1
    outer loop
      vertex 1.83205 0 0
      vertex 104.111 41.9471 0
      vertex 103.011 40.4333 0
    endloop
  endfacet
  facet normal 0 0 -1
    outer loop
      vertex 1.83205 0 0
      vertex 103.011 40.4333 0
      vertex 101.391 39.4977 0
    endloop
  endfacet
  facet normal 0 0 -1
    outer loop
      vertex 0.916025 1.5866 0
      vertex 99.5296 48.2528 0
      vertex 1.83205 0 0
    endloop
  endfacet
  facet normal -0.913545 0.406737 0
    outer loop
      vertex -4.40166 42.9356 0
      vertex -4.40166 42.9356 9.708
      vertex -3.64058 44.645 0
    endloop
  endfacet
  facet normal -0.913545 0.406737 0
    outer loop
      vertex -3.64058 44.645 0
      vertex -4.40166 42.9356 9.708
      vertex -3.64058 44.645 9.708
    endloop
  endfacet
  facet normal 0 0 1
    outer loop
      vertex -4.40166 42.9356 9.708
      vertex -4.40166 41.0644 9.708
      vertex -3.64058 39.355 9.708
    endloop
  endfacet
  facet normal 0 0 1
    outer loop
      vertex -0.470378 37.5247 9.708
      vertex -4.40166 42.9356 9.708
      vertex -2.25 38.1029 9.708
    endloop
  endfacet
  facet normal 0 0 1
    outer loop
      vertex -2.25 38.1029 9.708
      vertex -4.40166 42.9356 9.708
      vertex -3.64058 39.355 9.708
    endloop
  endfacet
  facet normal 0 0 1
    outer loop
      vertex 1.39058 37.7202 9.708
      vertex -4.40166 42.9356 9.708
      vertex -0.470378 37.5247 9.708
    endloop
  endfacet
  facet normal 0 0 1
    outer loop
      vertex -0.916025 40.4134 9.708
      vertex -4.40166 42.9356 9.708
      vertex 1.39058 37.7202 9.708
    endloop
  endfacet
  facet normal 0 0 1
    outer loop
      vertex 1.83205 42 9.708
      vertex 0.916025 40.4134 9.708
      vertex 4.11095 40.1697 9.708
    endloop
  endfacet
  facet normal 0 0 1
    outer loop
      vertex 0.916025 43.5866 9.708
      vertex 1.83205 42 9.708
      vertex 4.5 42 9.708
    endloop
  endfacet
  facet normal 0 0 1
    outer loop
      vertex 1.39058 46.2798 9.708
      vertex -4.40166 42.9356 9.708
      vertex 3.01109 45.3442 9.708
    endloop
  endfacet
  facet normal 0 0 1
    outer loop
      vertex -0.470378 46.4753 9.708
      vertex -4.40166 42.9356 9.708
      vertex 1.39058 46.2798 9.708
    endloop
  endfacet
  facet normal 0 0 1
    outer loop
      vertex -2.25 45.8971 9.708
      vertex -4.40166 42.9356 9.708
      vertex -0.470378 46.4753 9.708
    endloop
  endfacet
  facet normal 0 0 1
    outer loop
      vertex -3.64058 44.645 9.708
      vertex -4.40166 42.9356 9.708
      vertex -2.25 45.8971 9.708
    endloop
  endfacet
  facet normal 0 0 1
    outer loop
      vertex 3.01109 38.6558 9.708
      vertex -0.916025 40.4134 9.708
      vertex 1.39058 37.7202 9.708
    endloop
  endfacet
  facet normal 0 0 1
    outer loop
      vertex 0.916025 43.5866 9.708
      vertex 4.5 42 9.708
      vertex 4.11095 43.8303 9.708
    endloop
  endfacet
  facet normal 0 0 1
    outer loop
      vertex 3.01109 45.3442 9.708
      vertex -0.916025 43.5866 9.708
      vertex 4.11095 43.8303 9.708
    endloop
  endfacet
  facet normal 0 0 1
    outer loop
      vertex 3.01109 45.3442 9.708
      vertex -4.40166 42.9356 9.708
      vertex -0.916025 43.5866 9.708
    endloop
  endfacet
  facet normal 0 0 1
    outer loop
      vertex -0.916025 43.5866 9.708
      vertex 0.916025 43.5866 9.708
      vertex 4.11095 43.8303 9.708
    endloop
  endfacet
  facet normal 0 0 1
    outer loop
      vertex 4.5 42 9.708
      vertex 1.83205 42 9.708
      vertex 4.11095 40.1697 9.708
    endloop
  endfacet
  facet normal 0 0 1
    outer loop
      vertex 4.11095 40.1697 9.708
      vertex 0.916025 40.4134 9.708
      vertex 3.01109 38.6558 9.708
    endloop
  endfacet
  facet normal 0 0 1
    outer loop
      vertex -0.916025 40.4134 9.708
      vertex -1.83205 42 9.708
      vertex -4.40166 42.9356 9.708
    endloop
  endfacet
  facet normal 0 0 1
    outer loop
      vertex 0.916025 40.4134 9.708
      vertex -0.916025 40.4134 9.708
      vertex 3.01109 38.6558 9.708
    endloop
  endfacet
  facet normal 0 0 1
    outer loop
      vertex -1.83205 42 9.708
      vertex -0.916025 43.5866 9.708
      vertex -4.40166 42.9356 9.708
    endloop
  endfacet
  facet normal -0.913545 -0.406737 0
    outer loop
      vertex -4.40166 41.0644 4.854
      vertex -3.64058 39.355 4.854
      vertex -4.40166 41.0644 9.708
    endloop
  endfacet
  facet normal -0.913545 -0.406737 0
    outer loop
      vertex -4.40166 41.0644 9.708
      vertex -3.64058 39.355 4.854
      vertex -3.64058 39.355 9.708
    endloop
  endfacet
  facet normal 0 0 1
    outer loop
      vertex -0.470378 4.47535 4.854
      vertex 1.39058 4.27975 4.854
      vertex -4.40166 41.0644 4.854
    endloop
  endfacet
  facet normal 0 0 1
    outer loop
      vertex -4.40166 41.0644 4.854
      vertex -4.40166 0.935603 4.854
      vertex -3.64058 2.64503 4.854
    endloop
  endfacet
  facet normal 0 0 1
    outer loop
      vertex 1.39058 4.27975 4.854
      vertex 3.01109 3.34415 4.854
      vertex -4.40166 41.0644 4.854
    endloop
  endfacet
  facet normal 0 0 1
    outer loop
      vertex -2.25 3.89711 4.854
      vertex -4.40166 41.0644 4.854
      vertex -3.64058 2.64503 4.854
    endloop
  endfacet
  facet normal 0 0 1
    outer loop
      vertex -2.25 3.89711 4.854
      vertex -0.470378 4.47535 4.854
      vertex -4.40166 41.0644 4.854
    endloop
  endfacet
  facet normal 0 0 1
    outer loop
      vertex 3.01109 3.34415 4.854
      vertex 4.11095 1.83031 4.854
      vertex -4.40166 41.0644 4.854
    endloop
  endfacet
  facet normal 0 0 1
    outer loop
      vertex 4.5 0 4.854
      vertex 101.391 39.4977 4.854
      vertex 4.11095 1.83031 4.854
    endloop
  endfacet
  facet normal 0 0 1
    outer loop
      vertex 4.11095 -1.83031 4.854
      vertex 101.391 39.4977 4.854
      vertex 4.5 0 4.854
    endloop
  endfacet
  facet normal 0 0 1
    outer loop
      vertex 3.01109 -3.34415 4.854
      vertex 101.391 39.4977 4.854
      vertex 4.11095 -1.83031 4.854
    endloop
  endfacet
  facet normal 0 0 1
    outer loop
      vertex 1.39058 -4.27975 4.854
      vertex 101.391 39.4977 4.854
      vertex 3.01109 -3.34415 4.854
    endloop
  endfacet
  facet normal 0 0 1
    outer loop
      vertex 99.084 42.1909 4.854
      vertex 98.1679 43.7775 4.854
      vertex 4.5 42 4.854
    endloop
  endfacet
  facet normal 0 0 1
    outer loop
      vertex 99.5296 48.2528 4.854
      vertex -0.470378 46.4753 4.854
      vertex 1.39058 46.2798 4.854
    endloop
  endfacet
  facet normal 0 0 1
    outer loop
      vertex 99.5296 48.2528 4.854
      vertex 1.39058 46.2798 4.854
      vertex 3.01109 45.3442 4.854
    endloop
  endfacet
  facet normal 0 0 1
    outer loop
      vertex 99.5296 48.2528 4.854
      vertex 3.01109 45.3442 4.854
      vertex 4.11095 43.8303 4.854
    endloop
  endfacet
  facet normal 0 0 1
    outer loop
      vertex 99.5296 48.2528 4.854
      vertex 4.11095 43.8303 4.854
      vertex 4.5 42 4.854
    endloop
  endfacet
  facet normal 0 0 1
    outer loop
      vertex 4.5 37.613 4.854
      vertex 101.391 39.4977 4.854
      vertex 4.11095 40.1697 4.854
    endloop
  endfacet
  facet normal 0 0 1
    outer loop
      vertex 4.11095 1.83031 4.854
      vertex 4.11095 40.1697 4.854
      vertex 3.01109 38.6558 4.854
    endloop
  endfacet
  facet normal 0 0 1
    outer loop
      vertex 4.11095 1.83031 4.854
      vertex 3.01109 38.6558 4.854
      vertex 1.39058 37.7202 4.854
    endloop
  endfacet
  facet normal 0 0 1
    outer loop
      vertex 4.11095 1.83031 4.854
      vertex 1.39058 37.7202 4.854
      vertex -0.470378 37.5247 4.854
    endloop
  endfacet
  facet normal 0 0 1
    outer loop
      vertex 4.11095 1.83031 4.854
      vertex -0.470378 37.5247 4.854
      vertex -2.25 38.1029 4.854
    endloop
  endfacet
  facet normal 0 0 1
    outer loop
      vertex 4.11095 1.83031 4.854
      vertex -3.64058 39.355 4.854
      vertex -4.40166 41.0644 4.854
    endloop
  endfacet
  facet normal 0 0 1
    outer loop
      vertex 4.11095 1.83031 4.854
      vertex -2.25 38.1029 4.854
      vertex -3.64058 39.355 4.854
    endloop
  endfacet
  facet normal 0 0 1
    outer loop
      vertex 4.11095 1.83031 4.854
      vertex 4.5 6.85209 4.854
      vertex 4.11095 40.1697 4.854
    endloop
  endfacet
  facet normal 0 0 1
    outer loop
      vertex 4.11095 1.83031 4.854
      vertex 101.391 39.4977 4.854
      vertex 4.5 6.85209 4.854
    endloop
  endfacet
  facet normal 0 0 1
    outer loop
      vertex 4.5 6.85209 4.854
      vertex 4.5 37.613 4.854
      vertex 4.11095 40.1697 4.854
    endloop
  endfacet
  facet normal 0 0 1
    outer loop
      vertex 77.7402 38.9148 4.854
      vertex 101.391 39.4977 4.854
      vertex 4.5 37.613 4.854
    endloop
  endfacet
  facet normal 0 0 1
    outer loop
      vertex 4.5 6.85209 4.854
      vertex 101.391 39.4977 4.854
      vertex 77.7402 38.9148 4.854
    endloop
  endfacet
  facet normal 0 0 1
    outer loop
      vertex 100.916 45.3641 4.854
      vertex 104.111 45.6078 4.854
      vertex 99.084 45.3641 4.854
    endloop
  endfacet
  facet normal 0 0 1
    outer loop
      vertex 101.832 43.7775 4.854
      vertex 100.916 42.1909 4.854
      vertex 104.5 43.7775 4.854
    endloop
  endfacet
  facet normal 0 0 1
    outer loop
      vertex 104.5 43.7775 4.854
      vertex 104.111 45.6078 4.854
      vertex 101.832 43.7775 4.854
    endloop
  endfacet
  facet normal 0 0 1
    outer loop
      vertex 104.111 41.9471 4.854
      vertex 100.916 42.1909 4.854
      vertex 99.084 42.1909 4.854
    endloop
  endfacet
  facet normal 0 0 1
    outer loop
      vertex 104.111 41.9471 4.854
      vertex 104.5 43.7775 4.854
      vertex 100.916 42.1909 4.854
    endloop
  endfacet
  facet normal 0 0 1
    outer loop
      vertex 4.5 42 4.854
      vertex 101.391 48.0572 4.854
      vertex 99.5296 48.2528 4.854
    endloop
  endfacet
  facet normal 0 0 1
    outer loop
      vertex 4.5 42 4.854
      vertex 103.011 47.1216 4.854
      vertex 101.391 48.0572 4.854
    endloop
  endfacet
  facet normal 0 0 1
    outer loop
      vertex 4.5 42 4.854
      vertex 104.111 45.6078 4.854
      vertex 103.011 47.1216 4.854
    endloop
  endfacet
  facet normal 0 0 1
    outer loop
      vertex 4.5 42 4.854
      vertex 99.084 45.3641 4.854
      vertex 104.111 45.6078 4.854
    endloop
  endfacet
  facet normal 0 0 1
    outer loop
      vertex 4.5 42 4.854
      vertex 98.1679 43.7775 4.854
      vertex 99.084 45.3641 4.854
    endloop
  endfacet
  facet normal 0 0 1
    outer loop
      vertex 100.916 45.3641 4.854
      vertex 101.832 43.7775 4.854
      vertex 104.111 45.6078 4.854
    endloop
  endfacet
  facet normal 0 0 1
    outer loop
      vertex 4.5 42 4.854
      vertex 104.111 41.9471 4.854
      vertex 99.084 42.1909 4.854
    endloop
  endfacet
  facet normal 0 0 1
    outer loop
      vertex 4.5 42 4.854
      vertex 103.011 40.4333 4.854
      vertex 104.111 41.9471 4.854
    endloop
  endfacet
  facet normal 0 0 1
    outer loop
      vertex 4.5 42 4.854
      vertex 101.391 39.4977 4.854
      vertex 103.011 40.4333 4.854
    endloop
  endfacet
  facet normal 0 0 1
    outer loop
      vertex 4.5 42 4.854
      vertex 4.11095 40.1697 4.854
      vertex 101.391 39.4977 4.854
    endloop
  endfacet
  facet normal -0.913545 0.406737 0
    outer loop
      vertex -4.40166 0.935603 4.854
      vertex -4.40166 0.935603 9.708
      vertex -3.64058 2.64503 4.854
    endloop
  endfacet
  facet normal -0.913545 0.406737 0
    outer loop
      vertex -3.64058 2.64503 4.854
      vertex -4.40166 0.935603 9.708
      vertex -3.64058 2.64503 9.708
    endloop
  endfacet
  facet normal 0 0 1
    outer loop
      vertex -4.40166 0.935603 9.708
      vertex -4.40166 -0.935603 9.708
      vertex -3.64058 -2.64503 9.708
    endloop
  endfacet
  facet normal 0 0 1
    outer loop
      vertex -0.470378 -4.47535 9.708
      vertex -4.40166 0.935603 9.708
      vertex -2.25 -3.89711 9.708
    endloop
  endfacet
  facet normal 0 0 1
    outer loop
      vertex -2.25 -3.89711 9.708
      vertex -4.40166 0.935603 9.708
      vertex -3.64058 -2.64503 9.708
    endloop
  endfacet
  facet normal 0 0 1
    outer loop
      vertex 1.39058 -4.27975 9.708
      vertex -4.40166 0.935603 9.708
      vertex -0.470378 -4.47535 9.708
    endloop
  endfacet
  facet normal 0 0 1
    outer loop
      vertex -0.916025 -1.5866 9.708
      vertex -4.40166 0.935603 9.708
      vertex 1.39058 -4.27975 9.708
    endloop
  endfacet
  facet normal 0 0 1
    outer loop
      vertex 1.83205 0 9.708
      vertex 0.916025 -1.5866 9.708
      vertex 4.11095 -1.83031 9.708
    endloop
  endfacet
  facet normal 0 0 1
    outer loop
      vertex 0.916025 1.5866 9.708
      vertex 1.83205 0 9.708
      vertex 4.5 0 9.708
    endloop
  endfacet
  facet normal 0 0 1
    outer loop
      vertex 1.39058 4.27975 9.708
      vertex -4.40166 0.935603 9.708
      vertex 3.01109 3.34415 9.708
    endloop
  endfacet
  facet normal 0 0 1
    outer loop
      vertex -0.470378 4.47535 9.708
      vertex -4.40166 0.935603 9.708
      vertex 1.39058 4.27975 9.708
    endloop
  endfacet
  facet normal 0 0 1
    outer loop
      vertex -2.25 3.89711 9.708
      vertex -4.40166 0.935603 9.708
      vertex -0.470378 4.47535 9.708
    endloop
  endfacet
  facet normal 0 0 1
    outer loop
      vertex -3.64058 2.64503 9.708
      vertex -4.40166 0.935603 9.708
      vertex -2.25 3.89711 9.708
    endloop
  endfacet
  facet normal 0 0 1
    outer loop
      vertex 3.01109 -3.34415 9.708
      vertex -0.916025 -1.5866 9.708
      vertex 1.39058 -4.27975 9.708
    endloop
  endfacet
  facet normal 0 0 1
    outer loop
      vertex 0.916025 1.5866 9.708
      vertex 4.5 0 9.708
      vertex 4.11095 1.83031 9.708
    endloop
  endfacet
  facet normal 0 0 1
    outer loop
      vertex 3.01109 3.34415 9.708
      vertex -0.916025 1.5866 9.708
      vertex 4.11095 1.83031 9.708
    endloop
  endfacet
  facet normal 0 0 1
    outer loop
      vertex 3.01109 3.34415 9.708
      vertex -4.40166 0.935603 9.708
      vertex -0.916025 1.5866 9.708
    endloop
  endfacet
  facet normal 0 0 1
    outer loop
      vertex -0.916025 1.5866 9.708
      vertex 0.916025 1.5866 9.708
      vertex 4.11095 1.83031 9.708
    endloop
  endfacet
  facet normal 0 0 1
    outer loop
      vertex 4.5 0 9.708
      vertex 1.83205 0 9.708
      vertex 4.11095 -1.83031 9.708
    endloop
  endfacet
  facet normal 0 0 1
    outer loop
      vertex 4.11095 -1.83031 9.708
      vertex 0.916025 -1.5866 9.708
      vertex 3.01109 -3.34415 9.708
    endloop
  endfacet
  facet normal 0 0 1
    outer loop
      vertex -0.916025 -1.5866 9.708
      vertex -1.83205 0 9.708
      vertex -4.40166 0.935603 9.708
    endloop
  endfacet
  facet normal 0 0 1
    outer loop
      vertex 0.916025 -1.5866 9.708
      vertex -0.916025 -1.5866 9.708
      vertex 3.01109 -3.34415 9.708
    endloop
  endfacet
  facet normal 0 0 1
    outer loop
      vertex -1.83205 0 9.708
      vertex -0.916025 1.5866 9.708
      vertex -4.40166 0.935603 9.708
    endloop
  endfacet
  facet normal -0.669131 -0.743145 0
    outer loop
      vertex -3.64058 -2.64503 9.708
      vertex -3.64058 -2.64503 0
      vertex -2.25 -3.89711 0
    endloop
  endfacet
  facet normal -0.669131 -0.743145 0
    outer loop
      vertex -2.25 -3.89711 9.708
      vertex -3.64058 -2.64503 9.708
      vertex -2.25 -3.89711 0
    endloop
  endfacet
  facet normal -0.309017 -0.951056 0
    outer loop
      vertex -2.25 -3.89711 9.708
      vertex -2.25 -3.89711 0
      vertex -0.470378 -4.47535 0
    endloop
  endfacet
  facet normal -0.309017 -0.951056 0
    outer loop
      vertex -0.470378 -4.47535 9.708
      vertex -2.25 -3.89711 9.708
      vertex -0.470378 -4.47535 0
    endloop
  endfacet
  facet normal 0.104529 -0.994522 0
    outer loop
      vertex -0.470378 -4.47535 9.708
      vertex -0.470378 -4.47535 0
      vertex 1.39058 -4.27975 0
    endloop
  endfacet
  facet normal 0.104529 -0.994522 0
    outer loop
      vertex 1.39058 -4.27975 9.708
      vertex -0.470378 -4.47535 9.708
      vertex 1.39058 -4.27975 4.854
    endloop
  endfacet
  facet normal 0.104529 -0.994522 0
    outer loop
      vertex 1.39058 -4.27975 4.854
      vertex -0.470378 -4.47535 9.708
      vertex 1.39058 -4.27975 0
    endloop
  endfacet
  facet normal 0.40103 -0.916065 0
    outer loop
      vertex 1.39058 -4.27975 4.854
      vertex 1.39058 -4.27975 0
      vertex 101.391 39.4977 0
    endloop
  endfacet
  facet normal 0.40103 -0.916065 0
    outer loop
      vertex 101.391 39.4977 4.854
      vertex 1.39058 -4.27975 4.854
      vertex 101.391 39.4977 0
    endloop
  endfacet
  facet normal 0.5 -0.866026 0
    outer loop
      vertex 101.391 39.4977 4.854
      vertex 101.391 39.4977 0
      vertex 103.011 40.4333 0
    endloop
  endfacet
  facet normal 0.5 -0.866026 0
    outer loop
      vertex 103.011 40.4333 4.854
      vertex 101.391 39.4977 4.854
      vertex 103.011 40.4333 0
    endloop
  endfacet
  facet normal 0.809017 -0.587785 0
    outer loop
      vertex 103.011 40.4333 4.854
      vertex 103.011 40.4333 0
      vertex 104.111 41.9471 0
    endloop
  endfacet
  facet normal 0.809017 -0.587785 0
    outer loop
      vertex 104.111 41.9471 4.854
      vertex 103.011 40.4333 4.854
      vertex 104.111 41.9471 0
    endloop
  endfacet
  facet normal 0.978148 -0.207911 0
    outer loop
      vertex 104.111 41.9471 4.854
      vertex 104.111 41.9471 0
      vertex 104.5 43.7775 0
    endloop
  endfacet
  facet normal 0.978148 -0.207911 0
    outer loop
      vertex 104.5 43.7775 4.854
      vertex 104.111 41.9471 4.854
      vertex 104.5 43.7775 0
    endloop
  endfacet
  facet normal 0.978148 0.207911 0
    outer loop
      vertex 104.5 43.7775 0
      vertex 104.111 45.6078 0
      vertex 104.111 45.6078 4.854
    endloop
  endfacet
  facet normal 0.978148 0.207911 0
    outer loop
      vertex 104.5 43.7775 4.854
      vertex 104.5 43.7775 0
      vertex 104.111 45.6078 4.854
    endloop
  endfacet
  facet normal 0.809017 0.587785 0
    outer loop
      vertex 104.111 45.6078 0
      vertex 103.011 47.1216 0
      vertex 103.011 47.1216 4.854
    endloop
  endfacet
  facet normal 0.809017 0.587785 0
    outer loop
      vertex 104.111 45.6078 4.854
      vertex 104.111 45.6078 0
      vertex 103.011 47.1216 4.854
    endloop
  endfacet
  facet normal 0.5 0.866026 0
    outer loop
      vertex 101.391 48.0572 0
      vertex 101.391 48.0572 4.854
      vertex 103.011 47.1216 0
    endloop
  endfacet
  facet normal 0.5 0.866026 0
    outer loop
      vertex 103.011 47.1216 0
      vertex 101.391 48.0572 4.854
      vertex 103.011 47.1216 4.854
    endloop
  endfacet
  facet normal 0.104529 0.994522 0
    outer loop
      vertex 99.5296 48.2528 0
      vertex 99.5296 48.2528 4.854
      vertex 101.391 48.0572 0
    endloop
  endfacet
  facet normal 0.104529 0.994522 0
    outer loop
      vertex 101.391 48.0572 0
      vertex 99.5296 48.2528 4.854
      vertex 101.391 48.0572 4.854
    endloop
  endfacet
  facet normal -0.0177718 0.999842 0
    outer loop
      vertex -0.470378 46.4753 0
      vertex -0.470378 46.4753 4.854
      vertex 99.5296 48.2528 0
    endloop
  endfacet
  facet normal -0.0177718 0.999842 0
    outer loop
      vertex 99.5296 48.2528 0
      vertex -0.470378 46.4753 4.854
      vertex 99.5296 48.2528 4.854
    endloop
  endfacet
  facet normal -0.309017 0.951056 0
    outer loop
      vertex -2.25 45.8971 0
      vertex -2.25 45.8971 9.708
      vertex -0.470378 46.4753 0
    endloop
  endfacet
  facet normal -0.309017 0.951056 0
    outer loop
      vertex -0.470378 46.4753 4.854
      vertex -2.25 45.8971 9.708
      vertex -0.470378 46.4753 9.708
    endloop
  endfacet
  facet normal -0.309017 0.951056 0
    outer loop
      vertex -0.470378 46.4753 0
      vertex -2.25 45.8971 9.708
      vertex -0.470378 46.4753 4.854
    endloop
  endfacet
  facet normal -0.669131 0.743145 0
    outer loop
      vertex -3.64058 44.645 0
      vertex -3.64058 44.645 9.708
      vertex -2.25 45.8971 0
    endloop
  endfacet
  facet normal -0.669131 0.743145 0
    outer loop
      vertex -2.25 45.8971 0
      vertex -3.64058 44.645 9.708
      vertex -2.25 45.8971 9.708
    endloop
  endfacet
  facet normal 0.866025 0.5 0
    outer loop
      vertex -1.83205 0 9.708
      vertex -0.916025 -1.5866 9.708
      vertex -0.916025 -1.5866 0
    endloop
  endfacet
  facet normal 0.866025 0.5 0
    outer loop
      vertex -1.83205 0 0
      vertex -1.83205 0 9.708
      vertex -0.916025 -1.5866 0
    endloop
  endfacet
  facet normal 0.866025 -0.5 0
    outer loop
      vertex -0.916025 1.5866 0
      vertex -0.916025 1.5866 9.708
      vertex -1.83205 0 9.708
    endloop
  endfacet
  facet normal 0.866025 -0.5 0
    outer loop
      vertex -1.83205 0 0
      vertex -0.916025 1.5866 0
      vertex -1.83205 0 9.708
    endloop
  endfacet
  facet normal 0 -1 0
    outer loop
      vertex 0.916025 1.5866 0
      vertex 0.916025 1.5866 9.708
      vertex -0.916025 1.5866 9.708
    endloop
  endfacet
  facet normal 0 -1 0
    outer loop
      vertex -0.916025 1.5866 0
      vertex 0.916025 1.5866 0
      vertex -0.916025 1.5866 9.708
    endloop
  endfacet
  facet normal -0.866025 -0.5 0
    outer loop
      vertex 1.83205 0 9.708
      vertex 0.916025 1.5866 9.708
      vertex 1.83205 0 0
    endloop
  endfacet
  facet normal -0.866025 -0.5 0
    outer loop
      vertex 1.83205 0 0
      vertex 0.916025 1.5866 9.708
      vertex 0.916025 1.5866 0
    endloop
  endfacet
  facet normal -0.866025 0.5 0
    outer loop
      vertex 1.83205 0 9.708
      vertex 1.83205 0 0
      vertex 0.916025 -1.5866 9.708
    endloop
  endfacet
  facet normal -0.866025 0.5 0
    outer loop
      vertex 0.916025 -1.5866 9.708
      vertex 1.83205 0 0
      vertex 0.916025 -1.5866 0
    endloop
  endfacet
  facet normal 0 1 0
    outer loop
      vertex 0.916025 -1.5866 9.708
      vertex 0.916025 -1.5866 0
      vertex -0.916025 -1.5866 9.708
    endloop
  endfacet
  facet normal 0 1 0
    outer loop
      vertex -0.916025 -1.5866 9.708
      vertex 0.916025 -1.5866 0
      vertex -0.916025 -1.5866 0
    endloop
  endfacet
  facet normal 0.866025 0.5 0
    outer loop
      vertex -1.83205 42 9.708
      vertex -0.916025 40.4134 9.708
      vertex -0.916025 40.4134 0
    endloop
  endfacet
  facet normal 0.866025 0.5 0
    outer loop
      vertex -1.83205 42 0
      vertex -1.83205 42 9.708
      vertex -0.916025 40.4134 0
    endloop
  endfacet
  facet normal 0.866025 -0.5 0
    outer loop
      vertex -0.916025 43.5866 0
      vertex -0.916025 43.5866 9.708
      vertex -1.83205 42 9.708
    endloop
  endfacet
  facet normal 0.866025 -0.5 0
    outer loop
      vertex -1.83205 42 0
      vertex -0.916025 43.5866 0
      vertex -1.83205 42 9.708
    endloop
  endfacet
  facet normal 0 -1 0
    outer loop
      vertex 0.916025 43.5866 0
      vertex 0.916025 43.5866 9.708
      vertex -0.916025 43.5866 9.708
    endloop
  endfacet
  facet normal 0 -1 0
    outer loop
      vertex -0.916025 43.5866 0
      vertex 0.916025 43.5866 0
      vertex -0.916025 43.5866 9.708
    endloop
  endfacet
  facet normal -0.866025 -0.5 0
    outer loop
      vertex 1.83205 42 9.708
      vertex 0.916025 43.5866 9.708
      vertex 1.83205 42 0
    endloop
  endfacet
  facet normal -0.866025 -0.5 0
    outer loop
      vertex 1.83205 42 0
      vertex 0.916025 43.5866 9.708
      vertex 0.916025 43.5866 0
    endloop
  endfacet
  facet normal -0.866025 0.5 0
    outer loop
      vertex 1.83205 42 9.708
      vertex 1.83205 42 0
      vertex 0.916025 40.4134 9.708
    endloop
  endfacet
  facet normal -0.866025 0.5 0
    outer loop
      vertex 0.916025 40.4134 9.708
      vertex 1.83205 42 0
      vertex 0.916025 40.4134 0
    endloop
  endfacet
  facet normal 0 1 0
    outer loop
      vertex 0.916025 40.4134 9.708
      vertex 0.916025 40.4134 0
      vertex -0.916025 40.4134 9.708
    endloop
  endfacet
  facet normal 0 1 0
    outer loop
      vertex -0.916025 40.4134 9.708
      vertex 0.916025 40.4134 0
      vertex -0.916025 40.4134 0
    endloop
  endfacet
  facet normal 1 0 0
    outer loop
      vertex 4.5 6.85209 4.854
      vertex 4.5 6.85209 0
      vertex 4.5 37.613 0
    endloop
  endfacet
  facet normal 1 0 0
    outer loop
      vertex 4.5 37.613 4.854
      vertex 4.5 6.85209 4.854
      vertex 4.5 37.613 0
    endloop
  endfacet
  facet normal 0.0177718 -0.999842 0
    outer loop
      vertex 4.5 37.613 4.854
      vertex 4.5 37.613 0
      vertex 77.7402 38.9148 0
    endloop
  endfacet
  facet normal 0.0177718 -0.999842 0
    outer loop
      vertex 77.7402 38.9148 4.854
      vertex 4.5 37.613 4.854
      vertex 77.7402 38.9148 0
    endloop
  endfacet
  facet normal -0.40103 0.916065 0
    outer loop
      vertex 4.5 6.85209 0
      vertex 4.5 6.85209 4.854
      vertex 77.7402 38.9148 0
    endloop
  endfacet
  facet normal -0.40103 0.916065 0
    outer loop
      vertex 77.7402 38.9148 0
      vertex 4.5 6.85209 4.854
      vertex 77.7402 38.9148 4.854
    endloop
  endfacet
  facet normal 0.866025 0.5 0
    outer loop
      vertex 98.1679 43.7775 4.854
      vertex 99.084 42.1909 4.854
      vertex 99.084 42.1909 0
    endloop
  endfacet
  facet normal 0.866025 0.5 0
    outer loop
      vertex 98.1679 43.7775 0
      vertex 98.1679 43.7775 4.854
      vertex 99.084 42.1909 0
    endloop
  endfacet
  facet normal 0.866025 -0.5 0
    outer loop
      vertex 99.084 45.3641 0
      vertex 99.084 45.3641 4.854
      vertex 98.1679 43.7775 4.854
    endloop
  endfacet
  facet normal 0.866025 -0.5 0
    outer loop
      vertex 98.1679 43.7775 0
      vertex 99.084 45.3641 0
      vertex 98.1679 43.7775 4.854
    endloop
  endfacet
  facet normal 0 -1 0
    outer loop
      vertex 100.916 45.3641 0
      vertex 100.916 45.3641 4.854
      vertex 99.084 45.3641 4.854
    endloop
  endfacet
  facet normal 0 -1 0
    outer loop
      vertex 99.084 45.3641 0
      vertex 100.916 45.3641 0
      vertex 99.084 45.3641 4.854
    endloop
  endfacet
  facet normal -0.866025 -0.5 0
    outer loop
      vertex 101.832 43.7775 4.854
      vertex 100.916 45.3641 4.854
      vertex 101.832 43.7775 0
    endloop
  endfacet
  facet normal -0.866025 -0.5 0
    outer loop
      vertex 101.832 43.7775 0
      vertex 100.916 45.3641 4.854
      vertex 100.916 45.3641 0
    endloop
  endfacet
  facet normal -0.866025 0.5 0
    outer loop
      vertex 101.832 43.7775 4.854
      vertex 101.832 43.7775 0
      vertex 100.916 42.1909 4.854
    endloop
  endfacet
  facet normal -0.866025 0.5 0
    outer loop
      vertex 100.916 42.1909 4.854
      vertex 101.832 43.7775 0
      vertex 100.916 42.1909 0
    endloop
  endfacet
  facet normal 0 1 0
    outer loop
      vertex 100.916 42.1909 4.854
      vertex 100.916 42.1909 0
      vertex 99.084 42.1909 4.854
    endloop
  endfacet
  facet normal 0 1 0
    outer loop
      vertex 99.084 42.1909 4.854
      vertex 100.916 42.1909 0
      vertex 99.084 42.1909 0
    endloop
  endfacet
  facet normal 0.104529 0.994522 0
    outer loop
      vertex -0.470378 46.4753 4.854
      vertex -0.470378 46.4753 9.708
      vertex 1.39058 46.2798 4.854
    endloop
  endfacet
  facet normal 0.104529 0.994522 0
    outer loop
      vertex 1.39058 46.2798 4.854
      vertex -0.470378 46.4753 9.708
      vertex 1.39058 46.2798 9.708
    endloop
  endfacet
  facet normal 0.5 0.866026 0
    outer loop
      vertex 1.39058 46.2798 4.854
      vertex 1.39058 46.2798 9.708
      vertex 3.01109 45.3442 4.854
    endloop
  endfacet
  facet normal 0.5 0.866026 0
    outer loop
      vertex 3.01109 45.3442 4.854
      vertex 1.39058 46.2798 9.708
      vertex 3.01109 45.3442 9.708
    endloop
  endfacet
  facet normal 0.809017 0.587785 0
    outer loop
      vertex 4.11095 43.8303 4.854
      vertex 3.01109 45.3442 4.854
      vertex 3.01109 45.3442 9.708
    endloop
  endfacet
  facet normal 0.809017 0.587785 0
    outer loop
      vertex 4.11095 43.8303 9.708
      vertex 4.11095 43.8303 4.854
      vertex 3.01109 45.3442 9.708
    endloop
  endfacet
  facet normal 0.978148 0.207911 0
    outer loop
      vertex 4.5 42 4.854
      vertex 4.11095 43.8303 4.854
      vertex 4.11095 43.8303 9.708
    endloop
  endfacet
  facet normal 0.978148 0.207911 0
    outer loop
      vertex 4.5 42 9.708
      vertex 4.5 42 4.854
      vertex 4.11095 43.8303 9.708
    endloop
  endfacet
  facet normal 0.978148 -0.207911 0
    outer loop
      vertex 4.11095 40.1697 9.708
      vertex 4.11095 40.1697 4.854
      vertex 4.5 42 4.854
    endloop
  endfacet
  facet normal 0.978148 -0.207911 0
    outer loop
      vertex 4.5 42 9.708
      vertex 4.11095 40.1697 9.708
      vertex 4.5 42 4.854
    endloop
  endfacet
  facet normal 0.809017 -0.587785 0
    outer loop
      vertex 3.01109 38.6558 9.708
      vertex 3.01109 38.6558 4.854
      vertex 4.11095 40.1697 4.854
    endloop
  endfacet
  facet normal 0.809017 -0.587785 0
    outer loop
      vertex 4.11095 40.1697 9.708
      vertex 3.01109 38.6558 9.708
      vertex 4.11095 40.1697 4.854
    endloop
  endfacet
  facet normal 0.5 -0.866026 0
    outer loop
      vertex 1.39058 37.7202 9.708
      vertex 1.39058 37.7202 4.854
      vertex 3.01109 38.6558 4.854
    endloop
  endfacet
  facet normal 0.5 -0.866026 0
    outer loop
      vertex 3.01109 38.6558 9.708
      vertex 1.39058 37.7202 9.708
      vertex 3.01109 38.6558 4.854
    endloop
  endfacet
  facet normal 0.104529 -0.994522 0
    outer loop
      vertex -0.470378 37.5247 9.708
      vertex -0.470378 37.5247 4.854
      vertex 1.39058 37.7202 4.854
    endloop
  endfacet
  facet normal 0.104529 -0.994522 0
    outer loop
      vertex 1.39058 37.7202 9.708
      vertex -0.470378 37.5247 9.708
      vertex 1.39058 37.7202 4.854
    endloop
  endfacet
  facet normal -0.309017 -0.951056 0
    outer loop
      vertex -2.25 38.1029 9.708
      vertex -2.25 38.1029 4.854
      vertex -0.470378 37.5247 4.854
    endloop
  endfacet
  facet normal -0.309017 -0.951056 0
    outer loop
      vertex -0.470378 37.5247 9.708
      vertex -2.25 38.1029 9.708
      vertex -0.470378 37.5247 4.854
    endloop
  endfacet
  facet normal -0.669131 -0.743145 0
    outer loop
      vertex -3.64058 39.355 9.708
      vertex -3.64058 39.355 4.854
      vertex -2.25 38.1029 4.854
    endloop
  endfacet
  facet normal -0.669131 -0.743145 0
    outer loop
      vertex -2.25 38.1029 9.708
      vertex -3.64058 39.355 9.708
      vertex -2.25 38.1029 4.854
    endloop
  endfacet
  facet normal 0.5 -0.866026 0
    outer loop
      vertex 1.39058 -4.27975 9.708
      vertex 1.39058 -4.27975 4.854
      vertex 3.01109 -3.34415 4.854
    endloop
  endfacet
  facet normal 0.5 -0.866026 0
    outer loop
      vertex 3.01109 -3.34415 9.708
      vertex 1.39058 -4.27975 9.708
      vertex 3.01109 -3.34415 4.854
    endloop
  endfacet
  facet normal 0.809017 -0.587785 0
    outer loop
      vertex 3.01109 -3.34415 9.708
      vertex 3.01109 -3.34415 4.854
      vertex 4.11095 -1.83031 4.854
    endloop
  endfacet
  facet normal 0.809017 -0.587785 0
    outer loop
      vertex 4.11095 -1.83031 9.708
      vertex 3.01109 -3.34415 9.708
      vertex 4.11095 -1.83031 4.854
    endloop
  endfacet
  facet normal 0.978148 -0.207911 0
    outer loop
      vertex 4.11095 -1.83031 9.708
      vertex 4.11095 -1.83031 4.854
      vertex 4.5 0 4.854
    endloop
  endfacet
  facet normal 0.978148 -0.207911 0
    outer loop
      vertex 4.5 0 9.708
      vertex 4.11095 -1.83031 9.708
      vertex 4.5 0 4.854
    endloop
  endfacet
  facet normal 0.978148 0.207911 0
    outer loop
      vertex 4.5 0 4.854
      vertex 4.11095 1.83031 4.854
      vertex 4.11095 1.83031 9.708
    endloop
  endfacet
  facet normal 0.978148 0.207911 0
    outer loop
      vertex 4.5 0 9.708
      vertex 4.5 0 4.854
      vertex 4.11095 1.83031 9.708
    endloop
  endfacet
  facet normal 0.809017 0.587785 0
    outer loop
      vertex 4.11095 1.83031 4.854
      vertex 3.01109 3.34415 4.854
      vertex 3.01109 3.34415 9.708
    endloop
  endfacet
  facet normal 0.809017 0.587785 0
    outer loop
      vertex 4.11095 1.83031 9.708
      vertex 4.11095 1.83031 4.854
      vertex 3.01109 3.34415 9.708
    endloop
  endfacet
  facet normal 0.5 0.866026 0
    outer loop
      vertex 1.39058 4.27975 4.854
      vertex 1.39058 4.27975 9.708
      vertex 3.01109 3.34415 4.854
    endloop
  endfacet
  facet normal 0.5 0.866026 0
    outer loop
      vertex 3.01109 3.34415 4.854
      vertex 1.39058 4.27975 9.708
      vertex 3.01109 3.34415 9.708
    endloop
  endfacet
  facet normal 0.104529 0.994522 0
    outer loop
      vertex -0.470378 4.47535 4.854
      vertex -0.470378 4.47535 9.708
      vertex 1.39058 4.27975 4.854
    endloop
  endfacet
  facet normal 0.104529 0.994522 0
    outer loop
      vertex 1.39058 4.27975 4.854
      vertex -0.470378 4.47535 9.708
      vertex 1.39058 4.27975 9.708
    endloop
  endfacet
  facet normal -0.309017 0.951056 0
    outer loop
      vertex -2.25 3.89711 4.854
      vertex -2.25 3.89711 9.708
      vertex -0.470378 4.47535 4.854
    endloop
  endfacet
  facet normal -0.309017 0.951056 0
    outer loop
      vertex -0.470378 4.47535 4.854
      vertex -2.25 3.89711 9.708
      vertex -0.470378 4.47535 9.708
    endloop
  endfacet
  facet normal -0.669131 0.743145 0
    outer loop
      vertex -3.64058 2.64503 4.854
      vertex -3.64058 2.64503 9.708
      vertex -2.25 3.89711 4.854
    endloop
  endfacet
  facet normal -0.669131 0.743145 0
    outer loop
      vertex -2.25 3.89711 4.854
      vertex -3.64058 2.64503 9.708
      vertex -2.25 3.89711 9.708
    endloop
  endfacet
endsolid OpenSCAD_Model
