  0
SECTION
  2
BLOCKS
  0
ENDSEC
  0
SECTION
  2
ENTITIES
  0
LINE
  8
0
 10
-20
 11
-19.563
 20
0
 21
4.158
  0
LINE
  8
0
 10
-19.563
 11
-18.477
 20
4.158
 21
7.5
  0
LINE
  8
0
 10
-18.477
 11
-6
 20
7.5
 21
7.5
  0
LINE
  8
0
 10
-6
 11
-6
 20
7.5
 21
0
  0
LINE
  8
0
 10
-6
 11
-5.918
 20
0
 21
0
  0
LINE
  8
0
 10
-5.918
 11
-5.918
 20
0
 21
-0.988
  0
LINE
  8
0
 10
-5.918
 11
-5.277
 20
-0.988
 21
-2.856
  0
LINE
  8
0
 10
-5.277
 11
-4.064
 20
-2.856
 21
-4.414
  0
LINE
  8
0
 10
-4.064
 11
-2.41
 20
-4.414
 21
-5.495
  0
LINE
  8
0
 10
-2.41
 11
-0.495
 20
-5.495
 21
-5.98
  0
LINE
  8
0
 10
-0.495
 11
1.473
 20
-5.98
 21
-5.816
  0
LINE
  8
0
 10
1.473
 11
3.282
 20
-5.816
 21
-5.023
  0
LINE
  8
0
 10
3.282
 11
4.735
 20
-5.023
 21
-3.685
  0
LINE
  8
0
 10
4.735
 11
5.675
 20
-3.685
 21
-1.948
  0
LINE
  8
0
 10
5.675
 11
6
 20
-1.948
 21
0
  0
LINE
  8
0
 10
6
 11
6
 20
0
 21
7.5
  0
LINE
  8
0
 10
6
 11
18.477
 20
7.5
 21
7.5
  0
LINE
  8
0
 10
18.477
 11
19.563
 20
7.5
 21
4.158
  0
LINE
  8
0
 10
19.563
 11
20
 20
4.158
 21
0
  0
LINE
  8
0
 10
20
 11
19.563
 20
0
 21
-4.158
  0
LINE
  8
0
 10
19.563
 11
18.271
 20
-4.158
 21
-8.135
  0
LINE
  8
0
 10
18.271
 11
16.18
 20
-8.135
 21
-11.756
  0
LINE
  8
0
 10
16.18
 11
13.383
 20
-11.756
 21
-14.863
  0
LINE
  8
0
 10
13.383
 11
10
 20
-14.863
 21
-17.321
  0
LINE
  8
0
 10
10
 11
6.18
 20
-17.321
 21
-19.021
  0
LINE
  8
0
 10
6.18
 11
2.091
 20
-19.021
 21
-19.89
  0
LINE
  8
0
 10
2.091
 11
-2.091
 20
-19.89
 21
-19.89
  0
LINE
  8
0
 10
-2.091
 11
-6.18
 20
-19.89
 21
-19.021
  0
LINE
  8
0
 10
-6.18
 11
-10
 20
-19.021
 21
-17.321
  0
LINE
  8
0
 10
-10
 11
-13.383
 20
-17.321
 21
-14.863
  0
LINE
  8
0
 10
-13.383
 11
-16.18
 20
-14.863
 21
-11.756
  0
LINE
  8
0
 10
-16.18
 11
-18.271
 20
-11.756
 21
-8.135
  0
LINE
  8
0
 10
-18.271
 11
-19.563
 20
-8.135
 21
-4.158
  0
LINE
  8
0
 10
-19.563
 11
-20
 20
-4.158
 21
0
  0
LINE
  8
0
 10
-18.082
 11
-17.166
 20
0
 21
1.587
  0
LINE
  8
0
 10
-17.166
 11
-15.334
 20
1.587
 21
1.587
  0
LINE
  8
0
 10
-15.334
 11
-14.418
 20
1.587
 21
0
  0
LINE
  8
0
 10
-14.418
 11
-15.334
 20
0
 21
-1.587
  0
LINE
  8
0
 10
-15.334
 11
-17.166
 20
-1.587
 21
-1.587
  0
LINE
  8
0
 10
-17.166
 11
-18.082
 20
-1.587
 21
0
  0
LINE
  8
0
 10
-9.957
 11
-9.041
 20
-14.073
 21
-12.486
  0
LINE
  8
0
 10
-9.041
 11
-7.209
 20
-12.486
 21
-12.486
  0
LINE
  8
0
 10
-7.209
 11
-6.293
 20
-12.486
 21
-14.073
  0
LINE
  8
0
 10
-6.293
 11
-7.209
 20
-14.073
 21
-15.66
  0
LINE
  8
0
 10
-7.209
 11
-9.041
 20
-15.66
 21
-15.659
  0
LINE
  8
0
 10
-9.041
 11
-9.957
 20
-15.659
 21
-14.073
  0
LINE
  8
0
 10
6.293
 11
7.209
 20
-14.073
 21
-12.486
  0
LINE
  8
0
 10
7.209
 11
9.041
 20
-12.486
 21
-12.486
  0
LINE
  8
0
 10
9.041
 11
9.957
 20
-12.486
 21
-14.073
  0
LINE
  8
0
 10
9.957
 11
9.041
 20
-14.073
 21
-15.659
  0
LINE
  8
0
 10
9.041
 11
7.209
 20
-15.659
 21
-15.66
  0
LINE
  8
0
 10
7.209
 11
6.293
 20
-15.66
 21
-14.073
  0
LINE
  8
0
 10
14.418
 11
15.334
 20
0
 21
1.587
  0
LINE
  8
0
 10
15.334
 11
17.166
 20
1.587
 21
1.587
  0
LINE
  8
0
 10
17.166
 11
18.082
 20
1.587
 21
0
  0
LINE
  8
0
 10
18.082
 11
17.166
 20
0
 21
-1.587
  0
LINE
  8
0
 10
17.166
 11
15.334
 20
-1.587
 21
-1.587
  0
LINE
  8
0
 10
15.334
 11
14.418
 20
-1.587
 21
0
  0
ENDSEC
  0
SECTION
  2
OBJECTS
  0
DICTIONARY
  0
ENDSEC
  0
EOF
