solid OpenSCAD_Model
  facet normal -1 0 0
    outer loop
      vertex 0 0.152795 0
      vertex 0 2.96993 2.53656
      vertex 0 35.0472 0
    endloop
  endfacet
  facet normal -1 0 0
    outer loop
      vertex 0 35.0472 0
      vertex 0 2.96993 2.53656
      vertex 0 7.47626 5.13829
    endloop
  endfacet
  facet normal -1 0 0
    outer loop
      vertex 0 35.0472 0
      vertex 0 7.47626 5.13829
      vertex 0 12.425 6.74625
    endloop
  endfacet
  facet normal -1 0 0
    outer loop
      vertex 0 35.0472 0
      vertex 0 12.425 6.74625
      vertex 0 17.6 7.29016
    endloop
  endfacet
  facet normal -1 0 0
    outer loop
      vertex 0 35.0472 0
      vertex 0 17.6 7.29016
      vertex 0 22.775 6.74625
    endloop
  endfacet
  facet normal -1 0 0
    outer loop
      vertex 0 35.0472 0
      vertex 0 22.775 6.74625
      vertex 0 27.7237 5.13829
    endloop
  endfacet
  facet normal -1 0 0
    outer loop
      vertex 0 35.0472 0
      vertex 0 27.7237 5.13829
      vertex 0 32.2301 2.53656
    endloop
  endfacet
  facet normal -1.65011e-16 -0.669131 0.743145
    outer loop
      vertex 0 2.96993 2.53656
      vertex 0 0.152795 0
      vertex 180.75 0.152795 0
    endloop
  endfacet
  facet normal -1.65011e-16 -0.669131 0.743145
    outer loop
      vertex 180.75 2.96993 2.53656
      vertex 0 2.96993 2.53656
      vertex 180.75 0.152795 0
    endloop
  endfacet
  facet normal 0 0 -1
    outer loop
      vertex 152.082 7.6 0
      vertex 180.75 0.152795 0
      vertex 151.166 6.0134 0
    endloop
  endfacet
  facet normal 0 0 -1
    outer loop
      vertex 151.166 29.1866 0
      vertex 0 35.0472 0
      vertex 180.75 35.0472 0
    endloop
  endfacet
  facet normal 0 0 -1
    outer loop
      vertex 0 0.152795 0
      vertex 0 35.0472 0
      vertex 4.5188 14.1 0
    endloop
  endfacet
  facet normal 0 0 -1
    outer loop
      vertex 0 0.152795 0
      vertex 4.5188 14.1 0
      vertex 5.43483 12.5134 0
    endloop
  endfacet
  facet normal 0 0 -1
    outer loop
      vertex 0 0.152795 0
      vertex 5.43483 12.5134 0
      vertex 180.75 0.152795 0
    endloop
  endfacet
  facet normal 0 0 -1
    outer loop
      vertex 5.43483 12.5134 0
      vertex 7.26688 12.5134 0
      vertex 180.75 0.152795 0
    endloop
  endfacet
  facet normal 0 0 -1
    outer loop
      vertex 4.5188 21.1 0
      vertex 0 35.0472 0
      vertex 5.43483 22.6866 0
    endloop
  endfacet
  facet normal 0 0 -1
    outer loop
      vertex 7.26688 19.5134 0
      vertex 7.26688 15.6866 0
      vertex 5.43483 19.5134 0
    endloop
  endfacet
  facet normal 0 0 -1
    outer loop
      vertex 4.5188 14.1 0
      vertex 0 35.0472 0
      vertex 5.43483 15.6866 0
    endloop
  endfacet
  facet normal 0 0 -1
    outer loop
      vertex 5.43483 15.6866 0
      vertex 0 35.0472 0
      vertex 4.5188 21.1 0
    endloop
  endfacet
  facet normal 0 0 -1
    outer loop
      vertex 5.43483 15.6866 0
      vertex 4.5188 21.1 0
      vertex 7.26688 15.6866 0
    endloop
  endfacet
  facet normal 0 0 -1
    outer loop
      vertex 7.26688 19.5134 0
      vertex 8.1829 14.1 0
      vertex 7.26688 15.6866 0
    endloop
  endfacet
  facet normal 0 0 -1
    outer loop
      vertex 4.5188 21.1 0
      vertex 5.43483 19.5134 0
      vertex 7.26688 15.6866 0
    endloop
  endfacet
  facet normal 0 0 -1
    outer loop
      vertex 149.334 6.0134 0
      vertex 0 35.0472 0
      vertex 148.418 7.6 0
    endloop
  endfacet
  facet normal 0 0 -1
    outer loop
      vertex 8.1829 14.1 0
      vertex 7.26688 19.5134 0
      vertex 180.75 0.152795 0
    endloop
  endfacet
  facet normal 0 0 -1
    outer loop
      vertex 151.166 6.0134 0
      vertex 180.75 0.152795 0
      vertex 149.334 6.0134 0
    endloop
  endfacet
  facet normal 0 0 -1
    outer loop
      vertex 7.26688 19.5134 0
      vertex 8.1829 21.1 0
      vertex 180.75 0.152795 0
    endloop
  endfacet
  facet normal 0 0 -1
    outer loop
      vertex 8.1829 21.1 0
      vertex 7.26688 22.6866 0
      vertex 180.75 0.152795 0
    endloop
  endfacet
  facet normal 0 0 -1
    outer loop
      vertex 5.43483 22.6866 0
      vertex 0 35.0472 0
      vertex 7.26688 22.6866 0
    endloop
  endfacet
  facet normal 0 0 -1
    outer loop
      vertex 7.26688 22.6866 0
      vertex 0 35.0472 0
      vertex 149.334 6.0134 0
    endloop
  endfacet
  facet normal 0 0 -1
    outer loop
      vertex 7.26688 22.6866 0
      vertex 149.334 6.0134 0
      vertex 180.75 0.152795 0
    endloop
  endfacet
  facet normal 0 0 -1
    outer loop
      vertex 149.334 9.1866 0
      vertex 180.75 35.0472 0
      vertex 151.166 9.1866 0
    endloop
  endfacet
  facet normal 0 0 -1
    outer loop
      vertex 180.75 0.152795 0
      vertex 152.082 7.6 0
      vertex 180.75 35.0472 0
    endloop
  endfacet
  facet normal 0 0 -1
    outer loop
      vertex 152.082 7.6 0
      vertex 151.166 9.1866 0
      vertex 180.75 35.0472 0
    endloop
  endfacet
  facet normal 0 0 -1
    outer loop
      vertex 148.418 7.6 0
      vertex 0 35.0472 0
      vertex 149.334 9.1866 0
    endloop
  endfacet
  facet normal 0 0 -1
    outer loop
      vertex 152.082 27.6 0
      vertex 180.75 35.0472 0
      vertex 151.166 26.0134 0
    endloop
  endfacet
  facet normal 0 0 -1
    outer loop
      vertex 149.334 9.1866 0
      vertex 0 35.0472 0
      vertex 148.418 27.6 0
    endloop
  endfacet
  facet normal 0 0 -1
    outer loop
      vertex 149.334 9.1866 0
      vertex 148.418 27.6 0
      vertex 149.334 26.0134 0
    endloop
  endfacet
  facet normal 0 0 -1
    outer loop
      vertex 149.334 9.1866 0
      vertex 149.334 26.0134 0
      vertex 151.166 26.0134 0
    endloop
  endfacet
  facet normal 0 0 -1
    outer loop
      vertex 149.334 9.1866 0
      vertex 151.166 26.0134 0
      vertex 180.75 35.0472 0
    endloop
  endfacet
  facet normal 0 0 -1
    outer loop
      vertex 151.166 29.1866 0
      vertex 180.75 35.0472 0
      vertex 152.082 27.6 0
    endloop
  endfacet
  facet normal 0 0 -1
    outer loop
      vertex 149.334 29.1866 0
      vertex 0 35.0472 0
      vertex 151.166 29.1866 0
    endloop
  endfacet
  facet normal 0 0 -1
    outer loop
      vertex 148.418 27.6 0
      vertex 0 35.0472 0
      vertex 149.334 29.1866 0
    endloop
  endfacet
  facet normal 0 0 -1
    outer loop
      vertex 8.1829 14.1 0
      vertex 180.75 0.152795 0
      vertex 7.26688 12.5134 0
    endloop
  endfacet
  facet normal -1.65011e-16 0.669131 0.743145
    outer loop
      vertex 0 35.0472 0
      vertex 0 32.2301 2.53656
      vertex 180.75 32.2301 2.53656
    endloop
  endfacet
  facet normal -1.65011e-16 0.669131 0.743145
    outer loop
      vertex 180.75 35.0472 0
      vertex 0 35.0472 0
      vertex 180.75 32.2301 2.53656
    endloop
  endfacet
  facet normal -1.92296e-16 0.5 0.866025
    outer loop
      vertex 0 32.2301 2.53656
      vertex 0 27.7237 5.13829
      vertex 146.588 27.7237 5.13829
    endloop
  endfacet
  facet normal -1.92296e-16 0.5 0.866025
    outer loop
      vertex 148.768 28.2056 4.86011
      vertex 0 32.2301 2.53656
      vertex 146.698 28.2056 4.86011
    endloop
  endfacet
  facet normal -1.92296e-16 0.5 0.866025
    outer loop
      vertex 146.698 28.2056 4.86011
      vertex 0 32.2301 2.53656
      vertex 146.588 27.7237 5.13829
    endloop
  endfacet
  facet normal -1.92296e-16 0.5 0.866025
    outer loop
      vertex 149.334 29.1866 4.29371
      vertex 0 32.2301 2.53656
      vertex 148.768 28.2056 4.86011
    endloop
  endfacet
  facet normal -1.92296e-16 0.5 0.866025
    outer loop
      vertex 151.166 29.1866 4.29371
      vertex 0 32.2301 2.53656
      vertex 149.334 29.1866 4.29371
    endloop
  endfacet
  facet normal -1.92296e-16 0.5 0.866025
    outer loop
      vertex 180.75 32.2301 2.53656
      vertex 0 32.2301 2.53656
      vertex 151.166 29.1866 4.29371
    endloop
  endfacet
  facet normal -1.92296e-16 0.5 0.866025
    outer loop
      vertex 153.802 28.2056 4.86011
      vertex 151.166 29.1866 4.29371
      vertex 151.732 28.2056 4.86011
    endloop
  endfacet
  facet normal -1.92296e-16 0.5 0.866025
    outer loop
      vertex 180.75 27.7237 5.13829
      vertex 151.166 29.1866 4.29371
      vertex 153.802 28.2056 4.86011
    endloop
  endfacet
  facet normal -1.92296e-16 0.5 0.866025
    outer loop
      vertex 180.75 27.7237 5.13829
      vertex 153.802 28.2056 4.86011
      vertex 153.912 27.7237 5.13829
    endloop
  endfacet
  facet normal -1.92296e-16 0.5 0.866025
    outer loop
      vertex 180.75 32.2301 2.53656
      vertex 151.166 29.1866 4.29371
      vertex 180.75 27.7237 5.13829
    endloop
  endfacet
  facet normal -2.11177e-16 0.309017 0.951057
    outer loop
      vertex 0 27.7237 5.13829
      vertex 0 22.775 6.74625
      vertex 3.08522 22.775 6.74625
    endloop
  endfacet
  facet normal -2.11177e-16 0.309017 0.951057
    outer loop
      vertex 5.52975 24.6975 6.12158
      vertex 0 27.7237 5.13829
      vertex 4.05017 23.985 6.35309
    endloop
  endfacet
  facet normal -2.11177e-16 0.309017 0.951057
    outer loop
      vertex 4.05017 23.985 6.35309
      vertex 0 27.7237 5.13829
      vertex 3.08522 22.775 6.74625
    endloop
  endfacet
  facet normal -2.11177e-16 0.309017 0.951057
    outer loop
      vertex 7.17196 24.6975 6.12158
      vertex 0 27.7237 5.13829
      vertex 5.52975 24.6975 6.12158
    endloop
  endfacet
  facet normal -2.11177e-16 0.309017 0.951057
    outer loop
      vertex 180.75 22.775 6.74625
      vertex 0 27.7237 5.13829
      vertex 7.17196 24.6975 6.12158
    endloop
  endfacet
  facet normal -2.11177e-16 0.309017 0.951057
    outer loop
      vertex 180.75 22.775 6.74625
      vertex 7.17196 24.6975 6.12158
      vertex 8.65154 23.985 6.35309
    endloop
  endfacet
  facet normal -2.11177e-16 0.309017 0.951057
    outer loop
      vertex 180.75 22.775 6.74625
      vertex 8.65154 23.985 6.35309
      vertex 9.61649 22.775 6.74625
    endloop
  endfacet
  facet normal -2.11177e-16 0.309017 0.951057
    outer loop
      vertex 149.429 24.0025 6.34739
      vertex 0 27.7237 5.13829
      vertex 180.75 22.775 6.74625
    endloop
  endfacet
  facet normal -2.11177e-16 0.309017 0.951057
    outer loop
      vertex 180.75 27.7237 5.13829
      vertex 153.912 27.7237 5.13829
      vertex 180.75 22.775 6.74625
    endloop
  endfacet
  facet normal -2.11177e-16 0.309017 0.951057
    outer loop
      vertex 153.912 27.7237 5.13829
      vertex 153.94 27.6 5.1785
      vertex 180.75 22.775 6.74625
    endloop
  endfacet
  facet normal -2.11177e-16 0.309017 0.951057
    outer loop
      vertex 153.94 27.6 5.1785
      vertex 153.575 25.999 5.6987
      vertex 180.75 22.775 6.74625
    endloop
  endfacet
  facet normal -2.11177e-16 0.309017 0.951057
    outer loop
      vertex 153.575 25.999 5.6987
      vertex 152.551 24.715 6.11588
      vertex 180.75 22.775 6.74625
    endloop
  endfacet
  facet normal -2.11177e-16 0.309017 0.951057
    outer loop
      vertex 152.551 24.715 6.11588
      vertex 151.071 24.0025 6.34739
      vertex 180.75 22.775 6.74625
    endloop
  endfacet
  facet normal -2.11177e-16 0.309017 0.951057
    outer loop
      vertex 151.071 24.0025 6.34739
      vertex 149.429 24.0025 6.34739
      vertex 180.75 22.775 6.74625
    endloop
  endfacet
  facet normal -2.11177e-16 0.309017 0.951057
    outer loop
      vertex 147.949 24.715 6.11588
      vertex 146.925 25.999 5.6987
      vertex 0 27.7237 5.13829
    endloop
  endfacet
  facet normal -2.11177e-16 0.309017 0.951057
    outer loop
      vertex 146.925 25.999 5.6987
      vertex 146.56 27.6 5.1785
      vertex 0 27.7237 5.13829
    endloop
  endfacet
  facet normal -2.11177e-16 0.309017 0.951057
    outer loop
      vertex 146.56 27.6 5.1785
      vertex 146.588 27.7237 5.13829
      vertex 0 27.7237 5.13829
    endloop
  endfacet
  facet normal -2.11177e-16 0.309017 0.951057
    outer loop
      vertex 149.429 24.0025 6.34739
      vertex 147.949 24.715 6.11588
      vertex 0 27.7237 5.13829
    endloop
  endfacet
  facet normal -2.20828e-16 0.104529 0.994522
    outer loop
      vertex 0 22.775 6.74625
      vertex 0 17.6 7.29016
      vertex 3.9 17.6 7.29016
    endloop
  endfacet
  facet normal -2.20828e-16 0.104529 0.994522
    outer loop
      vertex 4.05017 18.215 7.22552
      vertex 0 22.775 6.74625
      vertex 3.9 17.6 7.29016
    endloop
  endfacet
  facet normal -2.20828e-16 0.104529 0.994522
    outer loop
      vertex 5.3273 17.6 7.29016
      vertex 4.05017 18.215 7.22552
      vertex 3.9 17.6 7.29016
    endloop
  endfacet
  facet normal -2.20828e-16 0.104529 0.994522
    outer loop
      vertex 3.02627 19.499 7.09057
      vertex 0 22.775 6.74625
      vertex 4.05017 18.215 7.22552
    endloop
  endfacet
  facet normal -2.20828e-16 0.104529 0.994522
    outer loop
      vertex 3.02627 22.701 6.75402
      vertex 0 22.775 6.74625
      vertex 2.66084 21.1 6.92229
    endloop
  endfacet
  facet normal -2.20828e-16 0.104529 0.994522
    outer loop
      vertex 3.08522 22.775 6.74625
      vertex 0 22.775 6.74625
      vertex 3.02627 22.701 6.75402
    endloop
  endfacet
  facet normal -2.20828e-16 0.104529 0.994522
    outer loop
      vertex 3.02627 19.499 7.09057
      vertex 2.66084 21.1 6.92229
      vertex 0 22.775 6.74625
    endloop
  endfacet
  facet normal -2.20828e-16 -0.104529 0.994522
    outer loop
      vertex 3.02627 12.499 6.75402
      vertex 0 12.425 6.74625
      vertex 3.08522 12.425 6.74625
    endloop
  endfacet
  facet normal -2.20828e-16 -0.104529 0.994522
    outer loop
      vertex 0 17.6 7.29016
      vertex 0 12.425 6.74625
      vertex 3.02627 12.499 6.75402
    endloop
  endfacet
  facet normal -2.20828e-16 -0.104529 0.994522
    outer loop
      vertex 3.02627 15.701 7.09057
      vertex 0 17.6 7.29016
      vertex 2.66084 14.1 6.92229
    endloop
  endfacet
  facet normal -2.20828e-16 -0.104529 0.994522
    outer loop
      vertex 4.05017 16.985 7.22552
      vertex 0 17.6 7.29016
      vertex 3.02627 15.701 7.09057
    endloop
  endfacet
  facet normal -2.20828e-16 -0.104529 0.994522
    outer loop
      vertex 5.3273 17.6 7.29016
      vertex 0 17.6 7.29016
      vertex 4.05017 16.985 7.22552
    endloop
  endfacet
  facet normal -2.20828e-16 -0.104529 0.994522
    outer loop
      vertex 3.9 17.6 7.29016
      vertex 0 17.6 7.29016
      vertex 5.3273 17.6 7.29016
    endloop
  endfacet
  facet normal -2.20828e-16 -0.104529 0.994522
    outer loop
      vertex 3.02627 12.499 6.75402
      vertex 2.66084 14.1 6.92229
      vertex 0 17.6 7.29016
    endloop
  endfacet
  facet normal -2.11177e-16 -0.309017 0.951057
    outer loop
      vertex 7.17196 10.5025 6.12158
      vertex 0 7.47626 5.13829
      vertex 146.588 7.47626 5.13829
    endloop
  endfacet
  facet normal -2.11177e-16 -0.309017 0.951057
    outer loop
      vertex 7.17196 10.5025 6.12158
      vertex 5.52975 10.5025 6.12158
      vertex 0 7.47626 5.13829
    endloop
  endfacet
  facet normal -2.11177e-16 -0.309017 0.951057
    outer loop
      vertex 180.75 7.47626 5.13829
      vertex 151.071 11.1975 6.34739
      vertex 152.551 10.485 6.11588
    endloop
  endfacet
  facet normal -2.11177e-16 -0.309017 0.951057
    outer loop
      vertex 180.75 7.47626 5.13829
      vertex 152.551 10.485 6.11588
      vertex 153.575 9.20104 5.6987
    endloop
  endfacet
  facet normal -2.11177e-16 -0.309017 0.951057
    outer loop
      vertex 180.75 7.47626 5.13829
      vertex 153.575 9.20104 5.6987
      vertex 153.94 7.6 5.1785
    endloop
  endfacet
  facet normal -2.11177e-16 -0.309017 0.951057
    outer loop
      vertex 180.75 7.47626 5.13829
      vertex 153.94 7.6 5.1785
      vertex 153.912 7.47626 5.13829
    endloop
  endfacet
  facet normal -2.11177e-16 -0.309017 0.951057
    outer loop
      vertex 180.75 12.425 6.74625
      vertex 151.071 11.1975 6.34739
      vertex 180.75 7.47626 5.13829
    endloop
  endfacet
  facet normal -2.11177e-16 -0.309017 0.951057
    outer loop
      vertex 180.75 12.425 6.74625
      vertex 9.61649 12.425 6.74625
      vertex 151.071 11.1975 6.34739
    endloop
  endfacet
  facet normal -2.11177e-16 -0.309017 0.951057
    outer loop
      vertex 8.65154 11.215 6.35309
      vertex 7.17196 10.5025 6.12158
      vertex 146.588 7.47626 5.13829
    endloop
  endfacet
  facet normal -2.11177e-16 -0.309017 0.951057
    outer loop
      vertex 4.05017 11.215 6.35309
      vertex 3.08522 12.425 6.74625
      vertex 0 12.425 6.74625
    endloop
  endfacet
  facet normal -2.11177e-16 -0.309017 0.951057
    outer loop
      vertex 0 12.425 6.74625
      vertex 0 7.47626 5.13829
      vertex 5.52975 10.5025 6.12158
    endloop
  endfacet
  facet normal -2.11177e-16 -0.309017 0.951057
    outer loop
      vertex 0 12.425 6.74625
      vertex 5.52975 10.5025 6.12158
      vertex 4.05017 11.215 6.35309
    endloop
  endfacet
  facet normal -2.11177e-16 -0.309017 0.951057
    outer loop
      vertex 9.61649 12.425 6.74625
      vertex 149.429 11.1975 6.34739
      vertex 151.071 11.1975 6.34739
    endloop
  endfacet
  facet normal -2.11177e-16 -0.309017 0.951057
    outer loop
      vertex 9.61649 12.425 6.74625
      vertex 147.949 10.485 6.11588
      vertex 149.429 11.1975 6.34739
    endloop
  endfacet
  facet normal -2.11177e-16 -0.309017 0.951057
    outer loop
      vertex 9.61649 12.425 6.74625
      vertex 146.925 9.20104 5.6987
      vertex 147.949 10.485 6.11588
    endloop
  endfacet
  facet normal -2.11177e-16 -0.309017 0.951057
    outer loop
      vertex 9.61649 12.425 6.74625
      vertex 146.56 7.6 5.1785
      vertex 146.925 9.20104 5.6987
    endloop
  endfacet
  facet normal -2.11177e-16 -0.309017 0.951057
    outer loop
      vertex 9.61649 12.425 6.74625
      vertex 146.588 7.47626 5.13829
      vertex 146.56 7.6 5.1785
    endloop
  endfacet
  facet normal -2.11177e-16 -0.309017 0.951057
    outer loop
      vertex 9.61649 12.425 6.74625
      vertex 8.65154 11.215 6.35309
      vertex 146.588 7.47626 5.13829
    endloop
  endfacet
  facet normal -1.92296e-16 -0.5 0.866025
    outer loop
      vertex 0 7.47626 5.13829
      vertex 0 2.96993 2.53656
      vertex 180.75 2.96993 2.53656
    endloop
  endfacet
  facet normal -1.92296e-16 -0.5 0.866025
    outer loop
      vertex 149.334 6.0134 4.29371
      vertex 0 7.47626 5.13829
      vertex 180.75 2.96993 2.53656
    endloop
  endfacet
  facet normal -1.92296e-16 -0.5 0.866025
    outer loop
      vertex 180.75 7.47626 5.13829
      vertex 153.912 7.47626 5.13829
      vertex 180.75 2.96993 2.53656
    endloop
  endfacet
  facet normal -1.92296e-16 -0.5 0.866025
    outer loop
      vertex 153.912 7.47626 5.13829
      vertex 153.802 6.99443 4.86011
      vertex 180.75 2.96993 2.53656
    endloop
  endfacet
  facet normal -1.92296e-16 -0.5 0.866025
    outer loop
      vertex 153.802 6.99443 4.86011
      vertex 151.732 6.99443 4.86011
      vertex 180.75 2.96993 2.53656
    endloop
  endfacet
  facet normal -1.92296e-16 -0.5 0.866025
    outer loop
      vertex 151.732 6.99443 4.86011
      vertex 151.166 6.0134 4.29371
      vertex 180.75 2.96993 2.53656
    endloop
  endfacet
  facet normal -1.92296e-16 -0.5 0.866025
    outer loop
      vertex 151.166 6.0134 4.29371
      vertex 149.334 6.0134 4.29371
      vertex 180.75 2.96993 2.53656
    endloop
  endfacet
  facet normal -1.92296e-16 -0.5 0.866025
    outer loop
      vertex 149.334 6.0134 4.29371
      vertex 146.698 6.99443 4.86011
      vertex 0 7.47626 5.13829
    endloop
  endfacet
  facet normal -1.92296e-16 -0.5 0.866025
    outer loop
      vertex 149.334 6.0134 4.29371
      vertex 148.768 6.99443 4.86011
      vertex 146.698 6.99443 4.86011
    endloop
  endfacet
  facet normal -1.92296e-16 -0.5 0.866025
    outer loop
      vertex 146.698 6.99443 4.86011
      vertex 146.588 7.47626 5.13829
      vertex 0 7.47626 5.13829
    endloop
  endfacet
  facet normal 1 0 0
    outer loop
      vertex 180.75 2.96993 2.53656
      vertex 180.75 0.152795 0
      vertex 180.75 35.0472 0
    endloop
  endfacet
  facet normal 1 0 0
    outer loop
      vertex 180.75 27.7237 5.13829
      vertex 180.75 2.96993 2.53656
      vertex 180.75 32.2301 2.53656
    endloop
  endfacet
  facet normal 1 0 0
    outer loop
      vertex 180.75 32.2301 2.53656
      vertex 180.75 2.96993 2.53656
      vertex 180.75 35.0472 0
    endloop
  endfacet
  facet normal 1 0 0
    outer loop
      vertex 180.75 22.775 6.74625
      vertex 180.75 2.96993 2.53656
      vertex 180.75 27.7237 5.13829
    endloop
  endfacet
  facet normal 1 0 0
    outer loop
      vertex 180.75 17.6 7.29016
      vertex 180.75 2.96993 2.53656
      vertex 180.75 22.775 6.74625
    endloop
  endfacet
  facet normal 1 0 0
    outer loop
      vertex 180.75 12.425 6.74625
      vertex 180.75 2.96993 2.53656
      vertex 180.75 17.6 7.29016
    endloop
  endfacet
  facet normal 1 0 0
    outer loop
      vertex 180.75 7.47626 5.13829
      vertex 180.75 2.96993 2.53656
      vertex 180.75 12.425 6.74625
    endloop
  endfacet
  facet normal 0.866025 -0.5 0
    outer loop
      vertex 5.43483 15.6866 0
      vertex 5.43483 15.6866 5.46762
      vertex 4.5188 14.1 5.46762
    endloop
  endfacet
  facet normal 0.866025 -0.5 0
    outer loop
      vertex 4.5188 14.1 0
      vertex 5.43483 15.6866 0
      vertex 4.5188 14.1 5.46762
    endloop
  endfacet
  facet normal 0.866025 0.5 0
    outer loop
      vertex 4.5188 14.1 5.46762
      vertex 5.43483 12.5134 5.46762
      vertex 5.43483 12.5134 0
    endloop
  endfacet
  facet normal 0.866025 0.5 0
    outer loop
      vertex 4.5188 14.1 0
      vertex 4.5188 14.1 5.46762
      vertex 5.43483 12.5134 0
    endloop
  endfacet
  facet normal 0 -1 0
    outer loop
      vertex 7.26688 15.6866 0
      vertex 7.26688 15.6866 5.46762
      vertex 5.43483 15.6866 5.46762
    endloop
  endfacet
  facet normal 0 -1 0
    outer loop
      vertex 5.43483 15.6866 0
      vertex 7.26688 15.6866 0
      vertex 5.43483 15.6866 5.46762
    endloop
  endfacet
  facet normal -0.866025 -0.5 0
    outer loop
      vertex 8.1829 14.1 5.46762
      vertex 7.26688 15.6866 5.46762
      vertex 8.1829 14.1 0
    endloop
  endfacet
  facet normal -0.866025 -0.5 0
    outer loop
      vertex 8.1829 14.1 0
      vertex 7.26688 15.6866 5.46762
      vertex 7.26688 15.6866 0
    endloop
  endfacet
  facet normal -0.866025 0.5 0
    outer loop
      vertex 8.1829 14.1 5.46762
      vertex 8.1829 14.1 0
      vertex 7.26688 12.5134 5.46762
    endloop
  endfacet
  facet normal -0.866025 0.5 0
    outer loop
      vertex 7.26688 12.5134 5.46762
      vertex 8.1829 14.1 0
      vertex 7.26688 12.5134 0
    endloop
  endfacet
  facet normal 0 1 0
    outer loop
      vertex 7.26688 12.5134 5.46762
      vertex 7.26688 12.5134 0
      vertex 5.43483 12.5134 5.46762
    endloop
  endfacet
  facet normal 0 1 0
    outer loop
      vertex 5.43483 12.5134 5.46762
      vertex 7.26688 12.5134 0
      vertex 5.43483 12.5134 0
    endloop
  endfacet
  facet normal 0.866025 -0.5 0
    outer loop
      vertex 5.43483 22.6866 0
      vertex 5.43483 22.6866 5.46762
      vertex 4.5188 21.1 5.46762
    endloop
  endfacet
  facet normal 0.866025 -0.5 0
    outer loop
      vertex 4.5188 21.1 0
      vertex 5.43483 22.6866 0
      vertex 4.5188 21.1 5.46762
    endloop
  endfacet
  facet normal 0.866025 0.5 0
    outer loop
      vertex 4.5188 21.1 5.46762
      vertex 5.43483 19.5134 5.46762
      vertex 5.43483 19.5134 0
    endloop
  endfacet
  facet normal 0.866025 0.5 0
    outer loop
      vertex 4.5188 21.1 0
      vertex 4.5188 21.1 5.46762
      vertex 5.43483 19.5134 0
    endloop
  endfacet
  facet normal 0 -1 0
    outer loop
      vertex 7.26688 22.6866 0
      vertex 7.26688 22.6866 5.46762
      vertex 5.43483 22.6866 5.46762
    endloop
  endfacet
  facet normal 0 -1 0
    outer loop
      vertex 5.43483 22.6866 0
      vertex 7.26688 22.6866 0
      vertex 5.43483 22.6866 5.46762
    endloop
  endfacet
  facet normal -0.866025 -0.5 0
    outer loop
      vertex 8.1829 21.1 5.46762
      vertex 7.26688 22.6866 5.46762
      vertex 8.1829 21.1 0
    endloop
  endfacet
  facet normal -0.866025 -0.5 0
    outer loop
      vertex 8.1829 21.1 0
      vertex 7.26688 22.6866 5.46762
      vertex 7.26688 22.6866 0
    endloop
  endfacet
  facet normal -0.866025 0.5 0
    outer loop
      vertex 8.1829 21.1 5.46762
      vertex 8.1829 21.1 0
      vertex 7.26688 19.5134 5.46762
    endloop
  endfacet
  facet normal -0.866025 0.5 0
    outer loop
      vertex 7.26688 19.5134 5.46762
      vertex 8.1829 21.1 0
      vertex 7.26688 19.5134 0
    endloop
  endfacet
  facet normal 0 1 0
    outer loop
      vertex 7.26688 19.5134 5.46762
      vertex 7.26688 19.5134 0
      vertex 5.43483 19.5134 5.46762
    endloop
  endfacet
  facet normal 0 1 0
    outer loop
      vertex 5.43483 19.5134 5.46762
      vertex 7.26688 19.5134 0
      vertex 5.43483 19.5134 0
    endloop
  endfacet
  facet normal 0.866025 -0.5 0
    outer loop
      vertex 149.334 9.1866 0
      vertex 149.334 9.1866 4.86011
      vertex 148.418 7.6 4.86011
    endloop
  endfacet
  facet normal 0.866025 -0.5 0
    outer loop
      vertex 148.418 7.6 0
      vertex 149.334 9.1866 0
      vertex 148.418 7.6 4.86011
    endloop
  endfacet
  facet normal 0.866025 0.5 0
    outer loop
      vertex 148.418 7.6 4.86011
      vertex 148.768 6.99443 4.86011
      vertex 149.334 6.0134 4.29371
    endloop
  endfacet
  facet normal 0.866025 0.5 0
    outer loop
      vertex 148.418 7.6 0
      vertex 148.418 7.6 4.86011
      vertex 149.334 6.0134 0
    endloop
  endfacet
  facet normal 0.866025 0.5 0
    outer loop
      vertex 149.334 6.0134 0
      vertex 148.418 7.6 4.86011
      vertex 149.334 6.0134 4.29371
    endloop
  endfacet
  facet normal 0 -1 0
    outer loop
      vertex 151.166 9.1866 0
      vertex 151.166 9.1866 4.86011
      vertex 149.334 9.1866 4.86011
    endloop
  endfacet
  facet normal 0 -1 0
    outer loop
      vertex 149.334 9.1866 0
      vertex 151.166 9.1866 0
      vertex 149.334 9.1866 4.86011
    endloop
  endfacet
  facet normal -0.866025 -0.5 0
    outer loop
      vertex 152.082 7.6 4.86011
      vertex 151.166 9.1866 4.86011
      vertex 152.082 7.6 0
    endloop
  endfacet
  facet normal -0.866025 -0.5 0
    outer loop
      vertex 152.082 7.6 0
      vertex 151.166 9.1866 4.86011
      vertex 151.166 9.1866 0
    endloop
  endfacet
  facet normal -0.866025 0.5 0
    outer loop
      vertex 151.732 6.99443 4.86011
      vertex 152.082 7.6 4.86011
      vertex 151.166 6.0134 4.29371
    endloop
  endfacet
  facet normal -0.866025 0.5 0
    outer loop
      vertex 151.166 6.0134 4.29371
      vertex 152.082 7.6 4.86011
      vertex 152.082 7.6 0
    endloop
  endfacet
  facet normal -0.866025 0.5 0
    outer loop
      vertex 151.166 6.0134 4.29371
      vertex 152.082 7.6 0
      vertex 151.166 6.0134 0
    endloop
  endfacet
  facet normal 0 1 0
    outer loop
      vertex 151.166 6.0134 4.29371
      vertex 151.166 6.0134 0
      vertex 149.334 6.0134 4.29371
    endloop
  endfacet
  facet normal 0 1 0
    outer loop
      vertex 149.334 6.0134 4.29371
      vertex 151.166 6.0134 0
      vertex 149.334 6.0134 0
    endloop
  endfacet
  facet normal 0.866025 -0.5 0
    outer loop
      vertex 149.334 29.1866 0
      vertex 149.334 29.1866 4.29371
      vertex 148.768 28.2056 4.86011
    endloop
  endfacet
  facet normal 0.866025 -0.5 0
    outer loop
      vertex 148.418 27.6 0
      vertex 149.334 29.1866 0
      vertex 148.418 27.6 4.86011
    endloop
  endfacet
  facet normal 0.866025 -0.5 0
    outer loop
      vertex 148.418 27.6 4.86011
      vertex 149.334 29.1866 0
      vertex 148.768 28.2056 4.86011
    endloop
  endfacet
  facet normal 0.866025 0.5 0
    outer loop
      vertex 148.418 27.6 4.86011
      vertex 149.334 26.0134 4.86011
      vertex 149.334 26.0134 0
    endloop
  endfacet
  facet normal 0.866025 0.5 0
    outer loop
      vertex 148.418 27.6 0
      vertex 148.418 27.6 4.86011
      vertex 149.334 26.0134 0
    endloop
  endfacet
  facet normal 0 -1 0
    outer loop
      vertex 151.166 29.1866 0
      vertex 151.166 29.1866 4.29371
      vertex 149.334 29.1866 4.29371
    endloop
  endfacet
  facet normal 0 -1 0
    outer loop
      vertex 149.334 29.1866 0
      vertex 151.166 29.1866 0
      vertex 149.334 29.1866 4.29371
    endloop
  endfacet
  facet normal -0.866025 -0.5 0
    outer loop
      vertex 152.082 27.6 4.86011
      vertex 151.732 28.2056 4.86011
      vertex 152.082 27.6 0
    endloop
  endfacet
  facet normal -0.866025 -0.5 0
    outer loop
      vertex 152.082 27.6 0
      vertex 151.732 28.2056 4.86011
      vertex 151.166 29.1866 4.29371
    endloop
  endfacet
  facet normal -0.866025 -0.5 0
    outer loop
      vertex 152.082 27.6 0
      vertex 151.166 29.1866 4.29371
      vertex 151.166 29.1866 0
    endloop
  endfacet
  facet normal -0.866025 0.5 0
    outer loop
      vertex 152.082 27.6 4.86011
      vertex 152.082 27.6 0
      vertex 151.166 26.0134 4.86011
    endloop
  endfacet
  facet normal -0.866025 0.5 0
    outer loop
      vertex 151.166 26.0134 4.86011
      vertex 152.082 27.6 0
      vertex 151.166 26.0134 0
    endloop
  endfacet
  facet normal 0 1 0
    outer loop
      vertex 151.166 26.0134 4.86011
      vertex 151.166 26.0134 0
      vertex 149.334 26.0134 4.86011
    endloop
  endfacet
  facet normal 0 1 0
    outer loop
      vertex 149.334 26.0134 4.86011
      vertex 151.166 26.0134 0
      vertex 149.334 26.0134 0
    endloop
  endfacet
  facet normal -0.974928 -0.222521 0
    outer loop
      vertex 153.94 27.6 5.1785
      vertex 153.912 27.7237 5.13829
      vertex 153.94 27.6 4.86011
    endloop
  endfacet
  facet normal -0.974928 -0.222521 0
    outer loop
      vertex 153.94 27.6 4.86011
      vertex 153.912 27.7237 5.13829
      vertex 153.802 28.2056 4.86011
    endloop
  endfacet
  facet normal 0 0 1
    outer loop
      vertex 146.925 25.999 4.86011
      vertex 147.949 24.715 4.86011
      vertex 149.429 24.0025 4.86011
    endloop
  endfacet
  facet normal 0 0 1
    outer loop
      vertex 152.551 24.715 4.86011
      vertex 146.925 25.999 4.86011
      vertex 151.071 24.0025 4.86011
    endloop
  endfacet
  facet normal 0 0 1
    outer loop
      vertex 151.071 24.0025 4.86011
      vertex 146.925 25.999 4.86011
      vertex 149.429 24.0025 4.86011
    endloop
  endfacet
  facet normal 0 0 1
    outer loop
      vertex 153.575 25.999 4.86011
      vertex 146.925 25.999 4.86011
      vertex 152.551 24.715 4.86011
    endloop
  endfacet
  facet normal 0 0 1
    outer loop
      vertex 151.166 26.0134 4.86011
      vertex 146.925 25.999 4.86011
      vertex 153.575 25.999 4.86011
    endloop
  endfacet
  facet normal 0 0 1
    outer loop
      vertex 149.334 26.0134 4.86011
      vertex 148.418 27.6 4.86011
      vertex 146.925 25.999 4.86011
    endloop
  endfacet
  facet normal 0 0 1
    outer loop
      vertex 153.802 28.2056 4.86011
      vertex 152.082 27.6 4.86011
      vertex 153.94 27.6 4.86011
    endloop
  endfacet
  facet normal 0 0 1
    outer loop
      vertex 153.94 27.6 4.86011
      vertex 151.166 26.0134 4.86011
      vertex 153.575 25.999 4.86011
    endloop
  endfacet
  facet normal 0 0 1
    outer loop
      vertex 149.334 26.0134 4.86011
      vertex 146.925 25.999 4.86011
      vertex 151.166 26.0134 4.86011
    endloop
  endfacet
  facet normal 0 0 1
    outer loop
      vertex 148.768 28.2056 4.86011
      vertex 146.925 25.999 4.86011
      vertex 148.418 27.6 4.86011
    endloop
  endfacet
  facet normal 0 0 1
    outer loop
      vertex 146.698 28.2056 4.86011
      vertex 146.925 25.999 4.86011
      vertex 148.768 28.2056 4.86011
    endloop
  endfacet
  facet normal 0 0 1
    outer loop
      vertex 146.56 27.6 4.86011
      vertex 146.925 25.999 4.86011
      vertex 146.698 28.2056 4.86011
    endloop
  endfacet
  facet normal 0 0 1
    outer loop
      vertex 151.732 28.2056 4.86011
      vertex 152.082 27.6 4.86011
      vertex 153.802 28.2056 4.86011
    endloop
  endfacet
  facet normal 0 0 1
    outer loop
      vertex 152.082 27.6 4.86011
      vertex 151.166 26.0134 4.86011
      vertex 153.94 27.6 4.86011
    endloop
  endfacet
  facet normal 0.974928 -0.222521 0
    outer loop
      vertex 146.698 28.2056 4.86011
      vertex 146.588 27.7237 5.13829
      vertex 146.56 27.6 5.1785
    endloop
  endfacet
  facet normal 0.974928 -0.222521 0
    outer loop
      vertex 146.56 27.6 4.86011
      vertex 146.698 28.2056 4.86011
      vertex 146.56 27.6 5.1785
    endloop
  endfacet
  facet normal 0.974928 0.222521 0
    outer loop
      vertex 146.56 27.6 5.1785
      vertex 146.925 25.999 5.6987
      vertex 146.925 25.999 4.86011
    endloop
  endfacet
  facet normal 0.974928 0.222521 0
    outer loop
      vertex 146.56 27.6 4.86011
      vertex 146.56 27.6 5.1785
      vertex 146.925 25.999 4.86011
    endloop
  endfacet
  facet normal 0.781831 0.62349 0
    outer loop
      vertex 146.925 25.999 5.6987
      vertex 147.949 24.715 6.11588
      vertex 147.949 24.715 4.86011
    endloop
  endfacet
  facet normal 0.781831 0.62349 0
    outer loop
      vertex 146.925 25.999 4.86011
      vertex 146.925 25.999 5.6987
      vertex 147.949 24.715 4.86011
    endloop
  endfacet
  facet normal 0.433884 0.900969 0
    outer loop
      vertex 149.429 24.0025 6.34739
      vertex 149.429 24.0025 4.86011
      vertex 147.949 24.715 6.11588
    endloop
  endfacet
  facet normal 0.433884 0.900969 0
    outer loop
      vertex 147.949 24.715 6.11588
      vertex 149.429 24.0025 4.86011
      vertex 147.949 24.715 4.86011
    endloop
  endfacet
  facet normal 0 1 0
    outer loop
      vertex 151.071 24.0025 6.34739
      vertex 151.071 24.0025 4.86011
      vertex 149.429 24.0025 6.34739
    endloop
  endfacet
  facet normal 0 1 0
    outer loop
      vertex 149.429 24.0025 6.34739
      vertex 151.071 24.0025 4.86011
      vertex 149.429 24.0025 4.86011
    endloop
  endfacet
  facet normal -0.433884 0.900969 0
    outer loop
      vertex 152.551 24.715 6.11588
      vertex 152.551 24.715 4.86011
      vertex 151.071 24.0025 6.34739
    endloop
  endfacet
  facet normal -0.433884 0.900969 0
    outer loop
      vertex 151.071 24.0025 6.34739
      vertex 152.551 24.715 4.86011
      vertex 151.071 24.0025 4.86011
    endloop
  endfacet
  facet normal -0.781831 0.62349 0
    outer loop
      vertex 153.575 25.999 5.6987
      vertex 153.575 25.999 4.86011
      vertex 152.551 24.715 6.11588
    endloop
  endfacet
  facet normal -0.781831 0.62349 0
    outer loop
      vertex 152.551 24.715 6.11588
      vertex 153.575 25.999 4.86011
      vertex 152.551 24.715 4.86011
    endloop
  endfacet
  facet normal -0.974928 0.222521 0
    outer loop
      vertex 153.94 27.6 5.1785
      vertex 153.94 27.6 4.86011
      vertex 153.575 25.999 5.6987
    endloop
  endfacet
  facet normal -0.974928 0.222521 0
    outer loop
      vertex 153.575 25.999 5.6987
      vertex 153.94 27.6 4.86011
      vertex 153.575 25.999 4.86011
    endloop
  endfacet
  facet normal -2.20828e-16 0.104529 0.994522
    outer loop
      vertex 8.65154 18.215 7.22552
      vertex 7.3744 17.6 7.29016
      vertex 180.75 17.6 7.29016
    endloop
  endfacet
  facet normal -2.20828e-16 0.104529 0.994522
    outer loop
      vertex 9.67544 19.499 7.09057
      vertex 8.65154 18.215 7.22552
      vertex 180.75 22.775 6.74625
    endloop
  endfacet
  facet normal -2.20828e-16 0.104529 0.994522
    outer loop
      vertex 180.75 22.775 6.74625
      vertex 8.65154 18.215 7.22552
      vertex 180.75 17.6 7.29016
    endloop
  endfacet
  facet normal -2.20828e-16 0.104529 0.994522
    outer loop
      vertex 9.61649 22.775 6.74625
      vertex 9.67544 22.701 6.75402
      vertex 180.75 22.775 6.74625
    endloop
  endfacet
  facet normal -2.20828e-16 0.104529 0.994522
    outer loop
      vertex 9.67544 22.701 6.75402
      vertex 10.0409 21.1 6.92229
      vertex 180.75 22.775 6.74625
    endloop
  endfacet
  facet normal -2.20828e-16 0.104529 0.994522
    outer loop
      vertex 10.0409 21.1 6.92229
      vertex 9.67544 19.499 7.09057
      vertex 180.75 22.775 6.74625
    endloop
  endfacet
  facet normal -0.781831 -0.62349 0
    outer loop
      vertex 9.67544 22.701 6.75402
      vertex 9.61649 22.775 6.74625
      vertex 9.67544 22.701 5.46762
    endloop
  endfacet
  facet normal -0.781831 -0.62349 0
    outer loop
      vertex 9.67544 22.701 5.46762
      vertex 9.61649 22.775 6.74625
      vertex 8.65154 23.985 6.35309
    endloop
  endfacet
  facet normal -0.781831 -0.62349 0
    outer loop
      vertex 9.67544 22.701 5.46762
      vertex 8.65154 23.985 6.35309
      vertex 8.65154 23.985 5.46762
    endloop
  endfacet
  facet normal -0.433884 -0.900969 0
    outer loop
      vertex 8.65154 23.985 5.46762
      vertex 8.65154 23.985 6.35309
      vertex 7.17196 24.6975 6.12158
    endloop
  endfacet
  facet normal -0.433884 -0.900969 0
    outer loop
      vertex 7.17196 24.6975 5.46762
      vertex 8.65154 23.985 5.46762
      vertex 7.17196 24.6975 6.12158
    endloop
  endfacet
  facet normal 0 -1 0
    outer loop
      vertex 7.17196 24.6975 5.46762
      vertex 7.17196 24.6975 6.12158
      vertex 5.52975 24.6975 6.12158
    endloop
  endfacet
  facet normal 0 -1 0
    outer loop
      vertex 5.52975 24.6975 5.46762
      vertex 7.17196 24.6975 5.46762
      vertex 5.52975 24.6975 6.12158
    endloop
  endfacet
  facet normal 0.433884 -0.900969 0
    outer loop
      vertex 5.52975 24.6975 5.46762
      vertex 5.52975 24.6975 6.12158
      vertex 4.05017 23.985 6.35309
    endloop
  endfacet
  facet normal 0.433884 -0.900969 0
    outer loop
      vertex 4.05017 23.985 5.46762
      vertex 5.52975 24.6975 5.46762
      vertex 4.05017 23.985 6.35309
    endloop
  endfacet
  facet normal 0.781831 -0.62349 0
    outer loop
      vertex 4.05017 23.985 5.46762
      vertex 4.05017 23.985 6.35309
      vertex 3.08522 22.775 6.74625
    endloop
  endfacet
  facet normal 0.781831 -0.62349 0
    outer loop
      vertex 3.02627 22.701 5.46762
      vertex 4.05017 23.985 5.46762
      vertex 3.02627 22.701 6.75402
    endloop
  endfacet
  facet normal 0.781831 -0.62349 0
    outer loop
      vertex 3.02627 22.701 6.75402
      vertex 4.05017 23.985 5.46762
      vertex 3.08522 22.775 6.74625
    endloop
  endfacet
  facet normal 0.974928 -0.222521 0
    outer loop
      vertex 3.02627 22.701 5.46762
      vertex 3.02627 22.701 6.75402
      vertex 2.66084 21.1 6.92229
    endloop
  endfacet
  facet normal 0.974928 -0.222521 0
    outer loop
      vertex 2.66084 21.1 5.46762
      vertex 3.02627 22.701 5.46762
      vertex 2.66084 21.1 6.92229
    endloop
  endfacet
  facet normal 0.974928 0.222521 0
    outer loop
      vertex 2.66084 21.1 6.92229
      vertex 3.02627 19.499 7.09057
      vertex 3.02627 19.499 5.46762
    endloop
  endfacet
  facet normal 0.974928 0.222521 0
    outer loop
      vertex 2.66084 21.1 5.46762
      vertex 2.66084 21.1 6.92229
      vertex 3.02627 19.499 5.46762
    endloop
  endfacet
  facet normal 0.781831 0.62349 0
    outer loop
      vertex 3.02627 19.499 7.09057
      vertex 4.05017 18.215 7.22552
      vertex 4.05017 18.215 5.46762
    endloop
  endfacet
  facet normal 0.781831 0.62349 0
    outer loop
      vertex 3.02627 19.499 5.46762
      vertex 3.02627 19.499 7.09057
      vertex 4.05017 18.215 5.46762
    endloop
  endfacet
  facet normal 0.433884 0.900969 0
    outer loop
      vertex 4.05017 18.215 7.22552
      vertex 5.3273 17.6 7.29016
      vertex 5.3273 17.6 5.46762
    endloop
  endfacet
  facet normal 0.433884 0.900969 0
    outer loop
      vertex 4.05017 18.215 7.22552
      vertex 5.3273 17.6 5.46762
      vertex 4.05017 18.215 5.46762
    endloop
  endfacet
  facet normal 0.433884 -0.900969 0
    outer loop
      vertex 4.05017 16.985 5.46762
      vertex 5.3273 17.6 5.46762
      vertex 4.05017 16.985 7.22552
    endloop
  endfacet
  facet normal 0.433884 -0.900969 0
    outer loop
      vertex 4.05017 16.985 7.22552
      vertex 5.3273 17.6 5.46762
      vertex 5.3273 17.6 7.29016
    endloop
  endfacet
  facet normal 0.781831 -0.62349 0
    outer loop
      vertex 4.05017 16.985 5.46762
      vertex 4.05017 16.985 7.22552
      vertex 3.02627 15.701 7.09057
    endloop
  endfacet
  facet normal 0.781831 -0.62349 0
    outer loop
      vertex 3.02627 15.701 5.46762
      vertex 4.05017 16.985 5.46762
      vertex 3.02627 15.701 7.09057
    endloop
  endfacet
  facet normal 0.974928 -0.222521 0
    outer loop
      vertex 3.02627 15.701 5.46762
      vertex 3.02627 15.701 7.09057
      vertex 2.66084 14.1 6.92229
    endloop
  endfacet
  facet normal 0.974928 -0.222521 0
    outer loop
      vertex 2.66084 14.1 5.46762
      vertex 3.02627 15.701 5.46762
      vertex 2.66084 14.1 6.92229
    endloop
  endfacet
  facet normal 0.974928 0.222521 0
    outer loop
      vertex 2.66084 14.1 6.92229
      vertex 3.02627 12.499 6.75402
      vertex 3.02627 12.499 5.46762
    endloop
  endfacet
  facet normal 0.974928 0.222521 0
    outer loop
      vertex 2.66084 14.1 5.46762
      vertex 2.66084 14.1 6.92229
      vertex 3.02627 12.499 5.46762
    endloop
  endfacet
  facet normal 0.781831 0.62349 0
    outer loop
      vertex 3.02627 12.499 6.75402
      vertex 3.08522 12.425 6.74625
      vertex 4.05017 11.215 6.35309
    endloop
  endfacet
  facet normal 0.781831 0.62349 0
    outer loop
      vertex 3.02627 12.499 5.46762
      vertex 3.02627 12.499 6.75402
      vertex 4.05017 11.215 5.46762
    endloop
  endfacet
  facet normal 0.781831 0.62349 0
    outer loop
      vertex 4.05017 11.215 5.46762
      vertex 3.02627 12.499 6.75402
      vertex 4.05017 11.215 6.35309
    endloop
  endfacet
  facet normal 0.433884 0.900969 0
    outer loop
      vertex 5.52975 10.5025 6.12158
      vertex 5.52975 10.5025 5.46762
      vertex 4.05017 11.215 6.35309
    endloop
  endfacet
  facet normal 0.433884 0.900969 0
    outer loop
      vertex 4.05017 11.215 6.35309
      vertex 5.52975 10.5025 5.46762
      vertex 4.05017 11.215 5.46762
    endloop
  endfacet
  facet normal 0 1 0
    outer loop
      vertex 7.17196 10.5025 6.12158
      vertex 7.17196 10.5025 5.46762
      vertex 5.52975 10.5025 6.12158
    endloop
  endfacet
  facet normal 0 1 0
    outer loop
      vertex 5.52975 10.5025 6.12158
      vertex 7.17196 10.5025 5.46762
      vertex 5.52975 10.5025 5.46762
    endloop
  endfacet
  facet normal -0.433884 0.900969 0
    outer loop
      vertex 8.65154 11.215 6.35309
      vertex 8.65154 11.215 5.46762
      vertex 7.17196 10.5025 6.12158
    endloop
  endfacet
  facet normal -0.433884 0.900969 0
    outer loop
      vertex 7.17196 10.5025 6.12158
      vertex 8.65154 11.215 5.46762
      vertex 7.17196 10.5025 5.46762
    endloop
  endfacet
  facet normal -0.781831 0.62349 0
    outer loop
      vertex 9.61649 12.425 6.74625
      vertex 9.67544 12.499 6.75402
      vertex 8.65154 11.215 6.35309
    endloop
  endfacet
  facet normal -0.781831 0.62349 0
    outer loop
      vertex 8.65154 11.215 6.35309
      vertex 9.67544 12.499 6.75402
      vertex 9.67544 12.499 5.46762
    endloop
  endfacet
  facet normal -0.781831 0.62349 0
    outer loop
      vertex 8.65154 11.215 6.35309
      vertex 9.67544 12.499 5.46762
      vertex 8.65154 11.215 5.46762
    endloop
  endfacet
  facet normal -2.20828e-16 -0.104529 0.994522
    outer loop
      vertex 10.0409 14.1 6.92229
      vertex 9.67544 12.499 6.75402
      vertex 180.75 17.6 7.29016
    endloop
  endfacet
  facet normal -2.20828e-16 -0.104529 0.994522
    outer loop
      vertex 180.75 17.6 7.29016
      vertex 7.3744 17.6 7.29016
      vertex 8.65154 16.985 7.22552
    endloop
  endfacet
  facet normal -2.20828e-16 -0.104529 0.994522
    outer loop
      vertex 9.67544 12.499 6.75402
      vertex 9.61649 12.425 6.74625
      vertex 180.75 17.6 7.29016
    endloop
  endfacet
  facet normal -2.20828e-16 -0.104529 0.994522
    outer loop
      vertex 9.67544 15.701 7.09057
      vertex 180.75 17.6 7.29016
      vertex 8.65154 16.985 7.22552
    endloop
  endfacet
  facet normal -2.20828e-16 -0.104529 0.994522
    outer loop
      vertex 9.67544 15.701 7.09057
      vertex 10.0409 14.1 6.92229
      vertex 180.75 17.6 7.29016
    endloop
  endfacet
  facet normal -2.20828e-16 -0.104529 0.994522
    outer loop
      vertex 9.61649 12.425 6.74625
      vertex 180.75 12.425 6.74625
      vertex 180.75 17.6 7.29016
    endloop
  endfacet
  facet normal -0.974928 0.222521 0
    outer loop
      vertex 153.94 7.6 5.1785
      vertex 153.94 7.6 4.86011
      vertex 153.912 7.47626 5.13829
    endloop
  endfacet
  facet normal -0.974928 0.222521 0
    outer loop
      vertex 153.912 7.47626 5.13829
      vertex 153.94 7.6 4.86011
      vertex 153.802 6.99443 4.86011
    endloop
  endfacet
  facet normal -0.974928 -0.222521 0
    outer loop
      vertex 153.94 7.6 5.1785
      vertex 153.575 9.20104 5.6987
      vertex 153.94 7.6 4.86011
    endloop
  endfacet
  facet normal -0.974928 -0.222521 0
    outer loop
      vertex 153.94 7.6 4.86011
      vertex 153.575 9.20104 5.6987
      vertex 153.575 9.20104 4.86011
    endloop
  endfacet
  facet normal -0.781831 -0.62349 0
    outer loop
      vertex 153.575 9.20104 5.6987
      vertex 152.551 10.485 6.11588
      vertex 153.575 9.20104 4.86011
    endloop
  endfacet
  facet normal -0.781831 -0.62349 0
    outer loop
      vertex 153.575 9.20104 4.86011
      vertex 152.551 10.485 6.11588
      vertex 152.551 10.485 4.86011
    endloop
  endfacet
  facet normal -0.433884 -0.900969 0
    outer loop
      vertex 152.551 10.485 4.86011
      vertex 152.551 10.485 6.11588
      vertex 151.071 11.1975 6.34739
    endloop
  endfacet
  facet normal -0.433884 -0.900969 0
    outer loop
      vertex 151.071 11.1975 4.86011
      vertex 152.551 10.485 4.86011
      vertex 151.071 11.1975 6.34739
    endloop
  endfacet
  facet normal 0 -1 0
    outer loop
      vertex 151.071 11.1975 4.86011
      vertex 151.071 11.1975 6.34739
      vertex 149.429 11.1975 6.34739
    endloop
  endfacet
  facet normal 0 -1 0
    outer loop
      vertex 149.429 11.1975 4.86011
      vertex 151.071 11.1975 4.86011
      vertex 149.429 11.1975 6.34739
    endloop
  endfacet
  facet normal 0.433884 -0.900969 0
    outer loop
      vertex 149.429 11.1975 4.86011
      vertex 149.429 11.1975 6.34739
      vertex 147.949 10.485 6.11588
    endloop
  endfacet
  facet normal 0.433884 -0.900969 0
    outer loop
      vertex 147.949 10.485 4.86011
      vertex 149.429 11.1975 4.86011
      vertex 147.949 10.485 6.11588
    endloop
  endfacet
  facet normal 0.781831 -0.62349 0
    outer loop
      vertex 147.949 10.485 4.86011
      vertex 147.949 10.485 6.11588
      vertex 146.925 9.20104 5.6987
    endloop
  endfacet
  facet normal 0.781831 -0.62349 0
    outer loop
      vertex 146.925 9.20104 4.86011
      vertex 147.949 10.485 4.86011
      vertex 146.925 9.20104 5.6987
    endloop
  endfacet
  facet normal 0.974928 -0.222521 0
    outer loop
      vertex 146.925 9.20104 4.86011
      vertex 146.925 9.20104 5.6987
      vertex 146.56 7.6 5.1785
    endloop
  endfacet
  facet normal 0.974928 -0.222521 0
    outer loop
      vertex 146.56 7.6 4.86011
      vertex 146.925 9.20104 4.86011
      vertex 146.56 7.6 5.1785
    endloop
  endfacet
  facet normal 0.974928 0.222521 0
    outer loop
      vertex 146.56 7.6 5.1785
      vertex 146.588 7.47626 5.13829
      vertex 146.698 6.99443 4.86011
    endloop
  endfacet
  facet normal 0.974928 0.222521 0
    outer loop
      vertex 146.56 7.6 4.86011
      vertex 146.56 7.6 5.1785
      vertex 146.698 6.99443 4.86011
    endloop
  endfacet
  facet normal 0 0 1
    outer loop
      vertex 149.334 9.1866 4.86011
      vertex 151.071 11.1975 4.86011
      vertex 146.698 6.99443 4.86011
    endloop
  endfacet
  facet normal 0 0 1
    outer loop
      vertex 146.698 6.99443 4.86011
      vertex 148.768 6.99443 4.86011
      vertex 148.418 7.6 4.86011
    endloop
  endfacet
  facet normal 0 0 1
    outer loop
      vertex 151.166 9.1866 4.86011
      vertex 153.575 9.20104 4.86011
      vertex 149.334 9.1866 4.86011
    endloop
  endfacet
  facet normal 0 0 1
    outer loop
      vertex 149.334 9.1866 4.86011
      vertex 146.698 6.99443 4.86011
      vertex 148.418 7.6 4.86011
    endloop
  endfacet
  facet normal 0 0 1
    outer loop
      vertex 152.082 7.6 4.86011
      vertex 153.802 6.99443 4.86011
      vertex 151.166 9.1866 4.86011
    endloop
  endfacet
  facet normal 0 0 1
    outer loop
      vertex 151.732 6.99443 4.86011
      vertex 153.802 6.99443 4.86011
      vertex 152.082 7.6 4.86011
    endloop
  endfacet
  facet normal 0 0 1
    outer loop
      vertex 153.802 6.99443 4.86011
      vertex 153.94 7.6 4.86011
      vertex 151.166 9.1866 4.86011
    endloop
  endfacet
  facet normal 0 0 1
    outer loop
      vertex 153.94 7.6 4.86011
      vertex 153.575 9.20104 4.86011
      vertex 151.166 9.1866 4.86011
    endloop
  endfacet
  facet normal 0 0 1
    outer loop
      vertex 153.575 9.20104 4.86011
      vertex 152.551 10.485 4.86011
      vertex 149.334 9.1866 4.86011
    endloop
  endfacet
  facet normal 0 0 1
    outer loop
      vertex 152.551 10.485 4.86011
      vertex 151.071 11.1975 4.86011
      vertex 149.334 9.1866 4.86011
    endloop
  endfacet
  facet normal 0 0 1
    outer loop
      vertex 151.071 11.1975 4.86011
      vertex 149.429 11.1975 4.86011
      vertex 146.698 6.99443 4.86011
    endloop
  endfacet
  facet normal 0 0 1
    outer loop
      vertex 149.429 11.1975 4.86011
      vertex 147.949 10.485 4.86011
      vertex 146.698 6.99443 4.86011
    endloop
  endfacet
  facet normal 0 0 1
    outer loop
      vertex 147.949 10.485 4.86011
      vertex 146.925 9.20104 4.86011
      vertex 146.698 6.99443 4.86011
    endloop
  endfacet
  facet normal 0 0 1
    outer loop
      vertex 146.925 9.20104 4.86011
      vertex 146.56 7.6 4.86011
      vertex 146.698 6.99443 4.86011
    endloop
  endfacet
  facet normal 0 0 1
    outer loop
      vertex 3.02627 12.499 5.46762
      vertex 4.05017 11.215 5.46762
      vertex 5.52975 10.5025 5.46762
    endloop
  endfacet
  facet normal 0 0 1
    outer loop
      vertex 8.65154 11.215 5.46762
      vertex 3.02627 12.499 5.46762
      vertex 7.17196 10.5025 5.46762
    endloop
  endfacet
  facet normal 0 0 1
    outer loop
      vertex 7.17196 10.5025 5.46762
      vertex 3.02627 12.499 5.46762
      vertex 5.52975 10.5025 5.46762
    endloop
  endfacet
  facet normal 0 0 1
    outer loop
      vertex 9.67544 12.499 5.46762
      vertex 3.02627 12.499 5.46762
      vertex 8.65154 11.215 5.46762
    endloop
  endfacet
  facet normal 0 0 1
    outer loop
      vertex 7.26688 12.5134 5.46762
      vertex 3.02627 12.499 5.46762
      vertex 9.67544 12.499 5.46762
    endloop
  endfacet
  facet normal 0 0 1
    outer loop
      vertex 4.5188 14.1 5.46762
      vertex 5.43483 15.6866 5.46762
      vertex 3.02627 12.499 5.46762
    endloop
  endfacet
  facet normal 0 0 1
    outer loop
      vertex 5.43483 15.6866 5.46762
      vertex 7.3744 17.6 5.46762
      vertex 10.0409 21.1 5.46762
    endloop
  endfacet
  facet normal 0 0 1
    outer loop
      vertex 5.43483 15.6866 5.46762
      vertex 8.65154 16.985 5.46762
      vertex 7.3744 17.6 5.46762
    endloop
  endfacet
  facet normal 0 0 1
    outer loop
      vertex 9.67544 19.499 5.46762
      vertex 7.3744 17.6 5.46762
      vertex 8.65154 18.215 5.46762
    endloop
  endfacet
  facet normal 0 0 1
    outer loop
      vertex 10.0409 21.1 5.46762
      vertex 7.3744 17.6 5.46762
      vertex 9.67544 19.499 5.46762
    endloop
  endfacet
  facet normal 0 0 1
    outer loop
      vertex 7.26688 19.5134 5.46762
      vertex 3.02627 12.499 5.46762
      vertex 9.67544 22.701 5.46762
    endloop
  endfacet
  facet normal 0 0 1
    outer loop
      vertex 3.02627 22.701 5.46762
      vertex 3.02627 19.499 5.46762
      vertex 4.05017 23.985 5.46762
    endloop
  endfacet
  facet normal 0 0 1
    outer loop
      vertex 2.66084 21.1 5.46762
      vertex 3.02627 19.499 5.46762
      vertex 3.02627 22.701 5.46762
    endloop
  endfacet
  facet normal 0 0 1
    outer loop
      vertex 3.02627 15.701 5.46762
      vertex 2.66084 14.1 5.46762
      vertex 3.02627 12.499 5.46762
    endloop
  endfacet
  facet normal 0 0 1
    outer loop
      vertex 5.3273 17.6 5.46762
      vertex 4.05017 16.985 5.46762
      vertex 3.02627 12.499 5.46762
    endloop
  endfacet
  facet normal 0 0 1
    outer loop
      vertex 7.26688 19.5134 5.46762
      vertex 5.3273 17.6 5.46762
      vertex 3.02627 12.499 5.46762
    endloop
  endfacet
  facet normal 0 0 1
    outer loop
      vertex 7.26688 19.5134 5.46762
      vertex 5.43483 19.5134 5.46762
      vertex 5.3273 17.6 5.46762
    endloop
  endfacet
  facet normal 0 0 1
    outer loop
      vertex 5.43483 12.5134 5.46762
      vertex 4.5188 14.1 5.46762
      vertex 3.02627 12.499 5.46762
    endloop
  endfacet
  facet normal 0 0 1
    outer loop
      vertex 8.1829 14.1 5.46762
      vertex 7.26688 12.5134 5.46762
      vertex 10.0409 14.1 5.46762
    endloop
  endfacet
  facet normal 0 0 1
    outer loop
      vertex 7.26688 15.6866 5.46762
      vertex 8.1829 14.1 5.46762
      vertex 9.67544 15.701 5.46762
    endloop
  endfacet
  facet normal 0 0 1
    outer loop
      vertex 5.43483 15.6866 5.46762
      vertex 7.26688 15.6866 5.46762
      vertex 8.65154 16.985 5.46762
    endloop
  endfacet
  facet normal 0 0 1
    outer loop
      vertex 9.67544 22.701 5.46762
      vertex 5.43483 15.6866 5.46762
      vertex 10.0409 21.1 5.46762
    endloop
  endfacet
  facet normal 0 0 1
    outer loop
      vertex 9.67544 22.701 5.46762
      vertex 3.02627 12.499 5.46762
      vertex 5.43483 15.6866 5.46762
    endloop
  endfacet
  facet normal 0 0 1
    outer loop
      vertex 8.65154 16.985 5.46762
      vertex 7.26688 15.6866 5.46762
      vertex 9.67544 15.701 5.46762
    endloop
  endfacet
  facet normal 0 0 1
    outer loop
      vertex 7.26688 22.6866 5.46762
      vertex 8.1829 21.1 5.46762
      vertex 8.65154 23.985 5.46762
    endloop
  endfacet
  facet normal 0 0 1
    outer loop
      vertex 9.67544 15.701 5.46762
      vertex 8.1829 14.1 5.46762
      vertex 10.0409 14.1 5.46762
    endloop
  endfacet
  facet normal 0 0 1
    outer loop
      vertex 5.43483 19.5134 5.46762
      vertex 4.5188 21.1 5.46762
      vertex 4.05017 18.215 5.46762
    endloop
  endfacet
  facet normal 0 0 1
    outer loop
      vertex 10.0409 14.1 5.46762
      vertex 7.26688 12.5134 5.46762
      vertex 9.67544 12.499 5.46762
    endloop
  endfacet
  facet normal 0 0 1
    outer loop
      vertex 5.43483 12.5134 5.46762
      vertex 3.02627 12.499 5.46762
      vertex 7.26688 12.5134 5.46762
    endloop
  endfacet
  facet normal 0 0 1
    outer loop
      vertex 4.5188 21.1 5.46762
      vertex 5.43483 22.6866 5.46762
      vertex 5.52975 24.6975 5.46762
    endloop
  endfacet
  facet normal 0 0 1
    outer loop
      vertex 4.05017 23.985 5.46762
      vertex 4.5188 21.1 5.46762
      vertex 5.52975 24.6975 5.46762
    endloop
  endfacet
  facet normal 0 0 1
    outer loop
      vertex 4.05017 23.985 5.46762
      vertex 4.05017 18.215 5.46762
      vertex 4.5188 21.1 5.46762
    endloop
  endfacet
  facet normal 0 0 1
    outer loop
      vertex 5.52975 24.6975 5.46762
      vertex 5.43483 22.6866 5.46762
      vertex 7.17196 24.6975 5.46762
    endloop
  endfacet
  facet normal 0 0 1
    outer loop
      vertex 7.17196 24.6975 5.46762
      vertex 7.26688 22.6866 5.46762
      vertex 8.65154 23.985 5.46762
    endloop
  endfacet
  facet normal 0 0 1
    outer loop
      vertex 8.65154 23.985 5.46762
      vertex 8.1829 21.1 5.46762
      vertex 9.67544 22.701 5.46762
    endloop
  endfacet
  facet normal 0 0 1
    outer loop
      vertex 8.1829 21.1 5.46762
      vertex 7.26688 19.5134 5.46762
      vertex 9.67544 22.701 5.46762
    endloop
  endfacet
  facet normal 0 0 1
    outer loop
      vertex 4.05017 16.985 5.46762
      vertex 3.02627 15.701 5.46762
      vertex 3.02627 12.499 5.46762
    endloop
  endfacet
  facet normal 0 0 1
    outer loop
      vertex 3.02627 19.499 5.46762
      vertex 4.05017 18.215 5.46762
      vertex 4.05017 23.985 5.46762
    endloop
  endfacet
  facet normal 0 0 1
    outer loop
      vertex 5.43483 22.6866 5.46762
      vertex 7.26688 22.6866 5.46762
      vertex 7.17196 24.6975 5.46762
    endloop
  endfacet
  facet normal 0 0 1
    outer loop
      vertex 4.05017 18.215 5.46762
      vertex 5.3273 17.6 5.46762
      vertex 5.43483 19.5134 5.46762
    endloop
  endfacet
  facet normal -0.433884 0.900969 0
    outer loop
      vertex 7.3744 17.6 7.29016
      vertex 8.65154 18.215 7.22552
      vertex 8.65154 18.215 5.46762
    endloop
  endfacet
  facet normal -0.433884 0.900969 0
    outer loop
      vertex 7.3744 17.6 7.29016
      vertex 8.65154 18.215 5.46762
      vertex 7.3744 17.6 5.46762
    endloop
  endfacet
  facet normal -0.781831 0.62349 0
    outer loop
      vertex 9.67544 19.499 7.09057
      vertex 9.67544 19.499 5.46762
      vertex 8.65154 18.215 7.22552
    endloop
  endfacet
  facet normal -0.781831 0.62349 0
    outer loop
      vertex 8.65154 18.215 7.22552
      vertex 9.67544 19.499 5.46762
      vertex 8.65154 18.215 5.46762
    endloop
  endfacet
  facet normal -0.974928 0.222521 0
    outer loop
      vertex 10.0409 21.1 6.92229
      vertex 10.0409 21.1 5.46762
      vertex 9.67544 19.499 7.09057
    endloop
  endfacet
  facet normal -0.974928 0.222521 0
    outer loop
      vertex 9.67544 19.499 7.09057
      vertex 10.0409 21.1 5.46762
      vertex 9.67544 19.499 5.46762
    endloop
  endfacet
  facet normal -0.974928 -0.222521 0
    outer loop
      vertex 10.0409 21.1 6.92229
      vertex 9.67544 22.701 6.75402
      vertex 10.0409 21.1 5.46762
    endloop
  endfacet
  facet normal -0.974928 -0.222521 0
    outer loop
      vertex 10.0409 21.1 5.46762
      vertex 9.67544 22.701 6.75402
      vertex 9.67544 22.701 5.46762
    endloop
  endfacet
  facet normal -0.974928 0.222521 0
    outer loop
      vertex 10.0409 14.1 6.92229
      vertex 10.0409 14.1 5.46762
      vertex 9.67544 12.499 6.75402
    endloop
  endfacet
  facet normal -0.974928 0.222521 0
    outer loop
      vertex 9.67544 12.499 6.75402
      vertex 10.0409 14.1 5.46762
      vertex 9.67544 12.499 5.46762
    endloop
  endfacet
  facet normal -0.974928 -0.222521 0
    outer loop
      vertex 10.0409 14.1 6.92229
      vertex 9.67544 15.701 7.09057
      vertex 10.0409 14.1 5.46762
    endloop
  endfacet
  facet normal -0.974928 -0.222521 0
    outer loop
      vertex 10.0409 14.1 5.46762
      vertex 9.67544 15.701 7.09057
      vertex 9.67544 15.701 5.46762
    endloop
  endfacet
  facet normal -0.781831 -0.62349 0
    outer loop
      vertex 9.67544 15.701 7.09057
      vertex 8.65154 16.985 7.22552
      vertex 9.67544 15.701 5.46762
    endloop
  endfacet
  facet normal -0.781831 -0.62349 0
    outer loop
      vertex 9.67544 15.701 5.46762
      vertex 8.65154 16.985 7.22552
      vertex 8.65154 16.985 5.46762
    endloop
  endfacet
  facet normal -0.433884 -0.900969 0
    outer loop
      vertex 8.65154 16.985 5.46762
      vertex 8.65154 16.985 7.22552
      vertex 7.3744 17.6 7.29016
    endloop
  endfacet
  facet normal -0.433884 -0.900969 0
    outer loop
      vertex 7.3744 17.6 5.46762
      vertex 8.65154 16.985 5.46762
      vertex 7.3744 17.6 7.29016
    endloop
  endfacet
endsolid OpenSCAD_Model
